<svg width="42" height="38" viewBox="0 0 42 38" fill="none" xmlns="http://www.w3.org/2000/svg">
<path fill-rule="evenodd" clip-rule="evenodd" d="M41.2113 24.7903L32.2758 19.7044V17.6177H33.7416C35.4812 17.6177 36.8965 16.1969 36.8965 14.4506V13.7485C36.8965 13.1129 36.3814 12.5958 35.7483 12.5958H34.215C33.4843 12.5958 32.8113 12.8472 32.2758 13.2675C32.2758 13.2675 32.2619 9.12334 32.2376 8.92971H34.5621C35.476 8.92971 36.3596 8.73566 37.1883 8.35302C37.4934 8.21227 37.6268 7.8498 37.4865 7.54372C37.3464 7.23756 36.9855 7.10356 36.6804 7.24432C36.0121 7.55284 35.2994 7.70929 34.5621 7.70929H32.2758V6.77389C32.2758 3.96377 34.5533 1.67753 37.3526 1.67753H39.639V2.61285C39.639 3.76272 39.2654 4.84873 38.5585 5.7537C38.3513 6.01894 38.3976 6.40247 38.6617 6.61043C38.926 6.81831 39.308 6.77193 39.5152 6.50678C40.3916 5.38481 40.8547 4.03829 40.8547 2.61285V1.50675C40.8547 0.928111 40.3856 0.457275 39.8092 0.457275H37.3526C34.0147 0.457275 31.2768 3.08011 31.0735 6.38034C30.2161 5.42419 28.9745 4.8218 27.5951 4.8218H25.6522C25.1227 4.8218 24.6918 5.25423 24.6918 5.78592V7.19444C24.6918 9.7853 26.7915 11.8931 29.3724 11.8931H31.06V19.0126L21.5908 13.6228V12.3353H22.4575C23.5743 12.3353 24.4829 11.4232 24.4829 10.302V9.6997C24.4829 9.06094 23.9652 8.54129 23.329 8.54129H22.4006C22.0666 8.54129 21.7517 8.6233 21.4738 8.76755C21.1943 7.98006 20.4445 7.4146 19.5653 7.4146H18.6369C18.0006 7.4146 17.4829 7.93434 17.4829 8.5731V9.17542C17.4829 10.2965 18.3916 11.2086 19.5084 11.2086H20.3751V11.7251V13.7037L9.62659 19.8216V17.6575V16.9036H10.4724C11.9168 16.9036 13.0918 15.724 13.0918 14.2741V13.5602C13.0918 12.9444 12.5927 12.4434 11.9793 12.4434H11.0304C10.0168 12.4434 9.13657 13.0246 8.70117 13.8721C8.07686 13.2034 7.1901 12.7843 6.20723 12.7843H5.287C4.66804 12.7843 4.16448 13.2898 4.16448 13.9112V14.835C4.16448 16.7278 5.69849 18.2677 7.58392 18.2677H8.41094V20.5135L6.04108 21.8624C5.74898 22.0286 5.64653 22.401 5.81212 22.6943C5.9777 22.9874 6.34874 23.0902 6.64076 22.9241L8.41102 21.9165V25.8763C8.41102 26.2134 8.6831 26.4865 9.01888 26.4865C9.35467 26.4865 9.62675 26.2134 9.62675 25.8763V21.2245L11.8933 19.9344L19.7912 24.4298L9.76939 30.1341L1.97625 25.5791L4.18118 24.3241C4.47328 24.1579 4.57572 23.7855 4.41014 23.4922C4.24448 23.199 3.87343 23.0962 3.5815 23.2624L0.897008 24.7903C0.617876 24.9492 0.443217 25.2481 0.441434 25.5703C0.439651 25.8924 0.610825 26.1932 0.888173 26.3552L9.46287 31.3671L9.46457 31.368L20.6019 37.8777C20.7413 37.9593 20.8977 38 21.0541 38C21.2105 38 21.367 37.9593 21.5064 37.8777L36.0124 29.3991C36.3025 29.2296 36.4007 28.856 36.2318 28.5648C36.0628 28.2735 35.6905 28.1747 35.4007 28.3444L32.3088 30.1516L22.2561 24.4297L30.1846 19.9168L31.0601 20.4152V25.0222C31.0601 25.3593 31.3322 25.6324 31.668 25.6324C32.0038 25.6324 32.2758 25.3593 32.2758 25.0222V21.1073L40.1321 25.579L37.8322 26.9233C37.5421 27.0929 37.4438 27.4665 37.6127 27.7577C37.7257 27.9524 37.9293 28.061 38.1386 28.061C38.2424 28.061 38.3477 28.0343 38.4439 27.978L41.2202 26.3552C41.4976 26.1932 41.6687 25.8924 41.6669 25.5703C41.6651 25.2481 41.4905 24.9492 41.2113 24.7903ZM34.215 13.8162H35.6808V14.4506C35.6808 15.524 34.8109 16.3973 33.7416 16.3973H32.2758V15.763C32.2758 14.6896 33.1458 13.8162 34.215 13.8162ZM25.9077 7.19428C25.9077 9.1122 27.4621 10.6725 29.3726 10.6725H31.0601V9.52047C31.0601 7.60255 29.5057 6.04213 27.5951 6.04213H25.9077V7.19428ZM9.62675 15.0727C9.62675 14.2957 10.2565 13.6636 11.0304 13.6636H11.8763V14.274C11.8763 15.051 11.2465 15.683 10.4726 15.683H9.62675V15.0727ZM5.38029 14.8349C5.38029 16.0547 6.36884 17.0471 7.584 17.0471H8.41102V16.2168C8.41102 14.9969 7.42247 14.0046 6.20731 14.0046H5.38029V14.8349ZM22.4008 9.76146H23.2675V10.3019C23.2675 10.7501 22.9043 11.1147 22.4578 11.1147H21.5911V10.5743C21.591 10.126 21.9543 9.76146 22.4008 9.76146ZM18.6988 8.63469V9.17517C18.6988 9.62339 19.062 9.98805 19.5085 9.98797H20.3752V9.44757C20.3752 8.99935 20.012 8.63469 19.5655 8.63469H18.6988ZM31.0928 30.8625L21.0543 36.73L10.9855 30.8448L21.0237 25.1313L31.0928 30.8625ZM13.1257 19.2328L21.0236 23.7283L28.9522 19.2155L21.5911 15.0256V19.2328C21.5911 19.5699 21.319 19.843 20.9832 19.843C20.6474 19.843 20.3753 19.5699 20.3753 19.2328V15.1065L13.1257 19.2328Z" fill="white"/>
</svg>
