<svg width="81" height="82" viewBox="0 0 81 82" fill="none" xmlns="http://www.w3.org/2000/svg">
<g id="Group 12">
<circle id="Oval" cx="41" cy="41" r="40" fill="white" stroke="#D8D8D8" stroke-width="1.5"/>
<g id="Group 32">
<g id="Group 2">
<g id="Group 13">
<g id="Group 14" clip-path="url(#clip0_0_1249)">
<path id="Back To Top" d="M21.0453 48C23.0853 48 24.1773 46.848 24.1773 45.54C24.1773 44.58 23.6133 43.824 22.4853 43.464C23.2293 43.164 23.7933 42.54 23.7933 41.676C23.7933 40.692 22.9653 39.504 20.8173 39.504C20.2773 39.504 18.9213 39.564 18.5013 39.564C18.5613 40.14 18.5853 41.688 18.5853 42.456V45.108C18.5853 45.888 18.5613 47.424 18.5013 48H21.0453ZM19.7493 46.92C19.7373 46.68 19.7373 46.476 19.7373 46.272V44.112C20.0373 44.076 20.3613 44.076 20.7333 44.076C22.2813 44.076 22.9653 44.664 22.9653 45.504C22.9653 46.524 22.1853 46.98 20.9613 46.98C20.5893 46.98 20.1093 46.956 19.7493 46.92ZM19.7493 43.104C19.7373 42.936 19.7373 42.684 19.7373 42.432V41.268C19.7373 41.088 19.7373 40.764 19.7493 40.56C19.9893 40.548 20.2773 40.524 20.7333 40.524C21.9333 40.524 22.5933 40.98 22.5933 41.796C22.5933 42.624 21.8973 43.128 20.6373 43.128C20.3253 43.128 20.0133 43.116 19.7493 43.104ZM27.7381 48.168C28.5061 48.168 29.1421 47.772 29.4661 47.208C29.5261 47.832 29.9461 48.144 30.4021 48.144C30.6901 48.144 30.9181 48.06 31.1221 47.976L31.2301 47.208C31.0501 47.268 30.8941 47.304 30.7501 47.304C30.4861 47.304 30.3901 47.16 30.4021 46.824L30.4741 44.448C30.5101 43.176 29.8381 42.312 28.4101 42.312C27.7021 42.312 27.0541 42.504 26.4541 42.852L26.7061 43.812C27.0901 43.524 27.6781 43.284 28.2301 43.284C29.0701 43.284 29.4181 43.692 29.3941 44.52L29.3821 44.7C29.2261 44.688 29.0701 44.676 28.9141 44.676C26.9941 44.676 25.9981 45.42 25.9981 46.536C25.9981 47.52 26.6821 48.168 27.7381 48.168ZM27.9781 47.28C27.3181 47.28 27.0661 46.932 27.0661 46.476C27.0661 45.876 27.5341 45.384 28.8781 45.384C29.0461 45.384 29.2021 45.396 29.3701 45.408L29.3461 45.948C29.3101 46.716 28.7461 47.28 27.9781 47.28ZM37.4343 42.852C36.9423 42.504 36.2823 42.312 35.6223 42.312C33.9183 42.312 32.6823 43.68 32.6823 45.408C32.6823 46.98 33.8943 48.216 35.5263 48.216C36.2943 48.216 36.7383 48.06 37.3623 47.676L37.4103 46.536C36.8103 47.064 36.3423 47.244 35.6583 47.244C34.6743 47.244 33.7743 46.548 33.7743 45.216C33.7743 44.136 34.5183 43.296 35.5743 43.296C36.1263 43.296 36.6663 43.464 37.1223 43.824L37.4343 42.852ZM43.2208 48.144L44.3968 47.904C43.8208 47.304 43.0528 46.368 42.3328 45.552L41.8168 44.976L44.2048 42.348C43.8088 42.384 43.2448 42.396 42.8008 42.396C42.4288 42.888 41.2528 44.244 40.7128 44.904V40.644C40.7128 40.224 40.7248 39.636 40.7608 39.324C40.4008 39.396 39.9568 39.444 39.5248 39.48C39.5848 39.996 39.6088 40.764 39.6088 41.46V46.044C39.6088 46.74 39.5848 47.484 39.5248 48H40.7608C40.7248 47.7 40.7128 47.256 40.7128 46.836V45.264L43.2208 48.144ZM55.8797 39.492C54.7757 39.528 53.6837 39.552 52.3757 39.552C51.0797 39.552 50.0477 39.528 48.9677 39.492C48.9677 39.864 48.9557 40.26 48.9197 40.56C49.8317 40.548 50.6837 40.536 51.7637 40.536C51.7877 41.208 51.7877 42 51.7877 42.504V45.108C51.7877 45.888 51.7637 47.424 51.7037 48H52.9997C52.9757 47.664 52.9637 46.728 52.9637 46.272V41.316C52.9637 41.112 52.9637 40.8 52.9757 40.536C54.0557 40.536 54.8597 40.548 55.7837 40.56C55.7957 40.176 55.8197 39.84 55.8797 39.492ZM61.8276 45.12C61.8276 43.62 60.7956 42.312 59.1516 42.312C57.4476 42.312 56.3316 43.68 56.3316 45.408C56.3316 46.908 57.3636 48.216 58.9956 48.216C60.7116 48.216 61.8276 46.848 61.8276 45.12ZM60.7356 45.276C60.7356 46.368 60.1116 47.244 59.0556 47.244C58.0716 47.244 57.4236 46.56 57.4236 45.228C57.4236 44.148 58.0836 43.284 59.1036 43.284C60.0156 43.284 60.7356 43.992 60.7356 45.276ZM38.2527 53.492C37.1487 53.528 36.0567 53.552 34.7487 53.552C33.4527 53.552 32.4207 53.528 31.3407 53.492C31.3407 53.864 31.3287 54.26 31.2927 54.56C32.2047 54.548 33.0567 54.536 34.1367 54.536C34.1607 55.208 34.1607 56 34.1607 56.504V59.108C34.1607 59.888 34.1367 61.424 34.0767 62H35.3727C35.3487 61.664 35.3367 60.728 35.3367 60.272V55.316C35.3367 55.112 35.3367 54.8 35.3487 54.536C36.4287 54.536 37.2327 54.548 38.1567 54.56C38.1687 54.176 38.1927 53.84 38.2527 53.492ZM44.2006 59.12C44.2006 57.62 43.1686 56.312 41.5246 56.312C39.8206 56.312 38.7046 57.68 38.7046 59.408C38.7046 60.908 39.7366 62.216 41.3686 62.216C43.0846 62.216 44.2006 60.848 44.2006 59.12ZM43.1086 59.276C43.1086 60.368 42.4846 61.244 41.4286 61.244C40.4446 61.244 39.7966 60.56 39.7966 59.228C39.7966 58.148 40.4566 57.284 41.4766 57.284C42.3886 57.284 43.1086 57.992 43.1086 59.276ZM51.6136 59.048C51.6136 57.536 50.7016 56.312 49.1776 56.312C48.4576 56.312 47.8096 56.684 47.4016 57.176L47.3536 56.432C46.9936 56.468 46.7056 56.48 46.2736 56.48C46.3336 56.996 46.3576 57.824 46.3576 58.52V62.54C46.3576 63.236 46.3336 64.052 46.2736 64.568L47.5096 64.46C47.4736 64.16 47.4616 63.752 47.4616 63.344V61.76C47.7736 62.024 48.3256 62.216 48.8776 62.216C50.1496 62.216 51.6136 61.016 51.6136 59.048ZM50.5096 59.156C50.5096 60.272 49.8496 61.268 48.8536 61.268C48.1816 61.268 47.7496 61.04 47.4616 60.704V58.1C47.7976 57.608 48.3376 57.272 48.8896 57.272C49.7656 57.272 50.5096 57.824 50.5096 59.156Z" fill="black"/>
<g id="Group 7">
<path id="Line 3" d="M31.2174 27L41 17.2174" stroke="black" stroke-width="2" stroke-linecap="round"/>
<path id="Line 3_2" d="M50.7826 27L41 17.2174" stroke="black" stroke-width="2" stroke-linecap="round"/>
</g>
</g>
</g>
</g>
</g>
</g>
<defs>
<clipPath id="clip0_0_1249">
<rect width="50" height="48" fill="white" transform="translate(16 17)"/>
</clipPath>
</defs>
</svg>
