<svg width="1679" height="774" viewBox="0 0 1679 774" fill="none" xmlns="http://www.w3.org/2000/svg">
<g id="adb-decor 2">
<rect id="Mask" width="1679" height="774" fill="white"/>
<mask id="mask0_0_898" style="mask-type:alpha" maskUnits="userSpaceOnUse" x="0" y="0" width="1680" height="774">
<rect id="Mask_2" width="1679" height="774" fill="white"/>
</mask>
<g mask="url(#mask0_0_898)">
<g id="adb-decor 2_2">
<g id="adb-decor" opacity="0.333697">
<g id="Group" opacity="0.65">
<path id="Shape" opacity="0.3" fill-rule="evenodd" clip-rule="evenodd" d="M1794.5 128.204L1793.5 128.863L1362.73 303.995L1363.37 303.216L1361.01 304.665L1154.24 248.879V248.689L1153.81 248.759H1153.65L1153.56 248.839L925.564 286.816H925.414L925.024 286.886L604.017 342.611L530.228 167.09L530.088 166.75L343.87 186.737H343.701L175.099 342.461L174.739 342.811L174.589 342.951L25.0515 486.523L-50.4067 361.53L133.882 298.568L16.7383 53.7495L16.3786 53L-125.095 244.042L-124.296 244.632L-91.6829 200.599L-67.6226 251.817L-124.996 295.311L-124.396 296.1L-68.1721 253.486L-125.265 389.223L-17.6535 526.708H-96.2191V527.707H-17.8733L-125.036 630.644L-125.515 631.103L-82.3805 656.688L-82.6602 657.227L-125.925 749.37L58.2443 623.728L155.685 748.231L156.514 749.29L160.511 664.603L248.688 748.291L248.878 748.471L669.614 663.403L579.387 747.571L580.067 748.301L670.913 663.533L671.002 663.953L671.532 663.034L672.141 662.964L671.892 662.624L672.891 661.724L672.231 661.864L726.747 565.684L679.725 747.801L680.724 748.051L728.375 563.415L839.395 749.82L835.048 576.997L888.324 630.644L841.053 747.741L841.982 748.111L889.094 631.453L1005 748.231L1006.05 750L1005.91 748.001L1065.99 626.676L1108.84 748.061L1109.78 747.731L1066.61 625.427L1165.02 426.679L1226.69 748.021L1226.94 749.32L1227.53 748.321L1371.6 683.501L1584.67 748.381L1585.86 749.3L1585.67 748.681L1586.1 748.811L1585.36 747.701L1549.22 634.411L1692.51 584.442L1656.36 747.781L1657.35 747.991L1693.42 584.992L1793.34 748.151L1794.2 747.621L1693.71 583.673L1765.92 257.384L1766.41 256.524L1766.1 256.584L1794.22 129.453L1794.5 128.204ZM1339.35 559.687L1582.43 746.662L1371.99 682.612L1339.35 559.687ZM24.8417 488.112L-15.9549 527.287L58.4542 622.369L91.7169 599.683L91.2473 599.463L91.9467 599.283L24.8417 488.112ZM57.475 622.749L-80.8018 655.728L-16.5344 528.147L57.475 622.749ZM545.805 456.481L650.249 463.217L603.648 344.39L545.805 456.481ZM352.733 363.808L336.227 528.187L293.791 479.217L352.733 363.808ZM263.416 444.259L293.082 478.408L351.794 363.488L263.416 444.259ZM354.122 360.011L262.757 443.509L176.018 343.521L440.012 299.788L443.329 651.631L337.126 529.226L354.122 360.011ZM319.65 703.799L443.049 652.83L337.036 530.635L319.65 703.799ZM547.324 594.286L505.858 681.612L444.908 652.98L547.324 594.286ZM533.315 480.736L445.097 651.751L547.883 592.807L533.315 480.736ZM548.922 592.787L534.344 480.856L669.424 660.945L548.922 592.787ZM544.386 457.221L499.163 431.237L538.291 469.023L544.386 457.221ZM537.812 469.933L533.535 478.098L500.032 433.415L537.812 469.933ZM726.227 560.497L650.789 464.336L547.124 457.57L726.227 560.497ZM544.876 456.341L494.017 427.069L532.985 479.087L444.288 650.981L441.011 299.848L602.978 343.491L544.876 456.341ZM528.889 167.999L345.039 187.767L440.461 298.379L528.889 167.999ZM439.552 298.848L176.627 342.411L343.88 187.987L439.552 298.848ZM262.027 444.179L175.498 344.45L166.735 531.275L262.027 444.179ZM262.687 444.938L292.592 479.407L252.625 557.619L164.397 580.495L166.676 532.704L262.687 444.938ZM94.5446 598.663L163.418 580.754L165.626 533.703L94.5446 598.663ZM94.1949 599.743L163.368 581.814L161.07 630.784L94.1949 599.743ZM159.591 662.384L161.02 631.833L95.274 601.342L159.591 662.384ZM164.377 581.544L252.765 558.628L318.072 703.539L162.099 631.223L164.377 581.544ZM293.302 480.236L253.554 558.068L318.711 702.599L336.097 529.566L293.302 480.236ZM443.399 653.739V653.849L443.779 653.629L443.998 653.879L444.108 653.649L504.359 681.952L322.578 703.599L443.399 653.739ZM669.693 662.254L548.693 593.726L506.937 681.612L669.693 662.254ZM534.244 478.997L538.581 470.592L653.217 581.284L670.253 660.435L534.244 478.997ZM539.001 469.653L653.817 580.475L726.847 561.946L545.215 457.66L539.001 469.653ZM727.156 562.895L671.422 661.175L654.246 581.394L727.156 562.895ZM653.107 465.625L728.365 561.566L729.185 561.316L728.975 561.686L832.29 574.958L653.107 465.625ZM651.428 463.427L605.056 345.24L831.291 573.179L651.428 463.427ZM1037.06 352.006L925.914 288.045L916.042 447.067L984.116 393.6L984.446 392.77L984.606 393.21L1037.06 352.006ZM963.673 444.179L935.636 513.596L916.132 448.556L963.673 444.179ZM983.367 395.419L917.111 447.457L964.092 443.139L983.367 395.419ZM964.792 444.079L986.164 442.08L990.85 544.697L936.205 514.875L964.792 444.079ZM984.056 396.368L965.211 443.029L986.114 441.111L984.056 396.368ZM857.45 496.466L607.824 345.09L914.453 448.306L857.45 496.466ZM935.046 515.075L915.222 448.986L858.169 497.186L908.068 581.844L935.046 515.075ZM935.506 516.604L1003.75 744.124L908.718 582.933L935.506 516.604ZM1004.6 743.504L990.94 545.856L936.405 516.124L1004.6 743.504ZM991.91 545.346L987.163 442.02L1000.37 440.801L1064.81 623.338L991.91 545.346ZM985.125 397.627L987.124 441.021L1000.02 439.831L985.125 397.627ZM984.965 394.17L1038 352.505L1163.63 424.771L1001.02 439.761L984.965 394.17ZM1164.72 424.151L1153.36 250.258L1038.82 351.736L1164.72 424.151ZM1533.31 265.249L1366.98 303.346L1784.34 133.66L1533.31 265.249ZM1359.93 374.941L1361.57 455.752L1457.54 354.044L1359.93 374.941ZM1359.94 373.922L1361.57 306.044L1457.49 353.015L1359.94 373.922ZM1275.53 409.92L1358.94 374.212L1360.57 306.684L1275.53 409.92ZM1359.1 305.884L1166.13 424.001L1200.1 317.167L1359.1 305.884ZM1154.38 251.028L1165.58 422.452L1199.17 316.767L1154.38 251.028ZM1358.86 307.183L1273.62 410.659L1167.56 424.331L1358.86 307.183ZM1360.62 456.101L1358.99 375.241L1275.04 411.129L1360.62 456.101ZM1361.6 457.191L1456.39 356.733L1339.67 555.4L1361.6 457.191ZM1532.11 266.558L1362.6 305.384L1458.9 352.555L1532.11 266.558ZM1199.99 316.178L1154.96 250.068L1358.12 304.915L1199.99 316.178ZM1272.14 412.388L1272.64 411.779L1166.52 425.47L1338.19 557.509L1360.52 457.191L1273.81 411.679L1272.14 412.388ZM1339.73 558.688L1446.28 543.078L1582.78 745.653L1339.73 558.688ZM1339.45 557.729L1446.05 542.098L1458.36 355.224L1339.45 557.729ZM1545.76 295.73L1493.8 460.629L1459.58 353.325L1545.76 295.73ZM1496.96 460.419L1569.61 429.188L1638.3 346.169L1496.96 460.419ZM1494.8 460.888L1546.96 295.241L1640.95 342.821L1494.8 460.888ZM1548.35 631.653L1569.34 430.397L1494.4 462.597L1548.35 631.653ZM1570.4 429.808L1640.63 344.99L1549.6 629.344L1570.4 429.808ZM1763.91 258.873L1642.34 342.971L1550.51 629.784L1763.91 258.873ZM1641.87 342.082L1548.29 294.761L1763.36 258.014L1641.87 342.082ZM1546.33 294.051H1546.53L1785.68 134.09L1533.82 266.119L1461.77 350.756L1546.33 294.181V294.051ZM1152.13 250.008L1037.87 351.296L926.903 287.475L1152.13 250.008ZM605.736 343.331L914.993 447.427L924.905 287.855L605.736 343.331ZM602.848 342.431L441.321 298.898L529.668 168.329L602.848 342.431ZM165.696 532.314L174.499 344.43L25.5811 487.402L92.836 598.903L165.696 532.314ZM57.5949 323.643L-65.7941 252.087L85.7218 200.239L132.494 298.009L57.5949 323.643ZM85.2622 199.34L16.3187 55.1787L-66.1038 251.138L85.2622 199.34ZM14.2204 57.5972L-66.9731 250.738L-90.9534 199.68L14.2204 57.5972ZM56.2859 324.033L-66.7133 252.687L-124.116 389.073L-16.5744 526.488L24.3121 487.232L-51.9054 361.01L-51.3159 360.81L56.2859 324.033ZM-123.876 630.904L-18.3929 529.616L-81.9608 655.778L-123.876 630.904ZM55.8263 624.168L-81.3813 656.887L-123.467 746.482L55.8263 624.168ZM155.635 746.572L59.0737 623.158L92.5662 600.312V600.382L92.6761 600.282L159.481 663.693L155.635 746.572ZM161.999 632.313L160.551 663.294L249.188 747.472L659.052 664.603L506.467 682.792L506.367 682.991L506.048 682.841L319.79 705.038L320.06 705.637L318.971 705.138H318.491V704.878L161.999 632.313ZM729.085 562.766L833.999 576.207L838.285 746.032L729.085 562.766ZM834.998 575.328V575.558L888.734 629.644L907.569 583.063L857.12 497.496L606.925 345.759L834.738 575.328H834.998ZM908.198 584.102L1002.9 744.753L889.503 630.444L908.198 584.102ZM1065.43 625.527L991.969 546.925L1005.75 746.052L1065.43 625.527ZM1001.36 440.761L1164.41 425.77L1066.1 624.148L1001.36 440.761ZM1337.88 558.518L1166.02 426.32L1227.44 746.572L1337.88 558.518ZM1228.46 746.832L1338.37 559.677L1371.03 682.682L1228.46 746.832ZM1459.34 355.813L1447.06 542.418L1583.38 744.733L1548.48 635.311L1547.87 636.37L1548.03 634.811L1547.83 634.881L1548.09 634.082L1493.53 462.987L1493.03 463.207L1493.31 462.317L1459.34 355.813ZM1692.79 583.343L1549.7 633.192L1764.25 260.232L1692.79 583.343ZM1548.91 293.702L1765.06 256.724L1792.97 130.412L1548.91 293.702Z" fill="#E76ECE"/>
</g>
<path id="Path" d="M663.668 215.77C665.423 215.77 667.005 214.712 667.676 213.09C668.346 211.468 667.974 209.601 666.731 208.362C665.489 207.122 663.622 206.754 662.002 207.428C660.382 208.102 659.328 209.687 659.332 211.442C659.332 212.592 659.789 213.694 660.603 214.506C661.416 215.318 662.519 215.772 663.668 215.77Z" fill="#E76ECE"/>
<ellipse id="Oval" cx="682.323" cy="247.07" rx="9.61213" ry="9.61407" fill="#E76ECE"/>
<ellipse id="Oval_2" cx="946.776" cy="267.867" rx="4.3964" ry="4.39729" fill="#E76ECE"/>
<path id="Path_2" d="M897.906 243.203C899.126 243.203 900.115 242.214 900.115 240.994C900.115 239.774 899.126 238.785 897.906 238.785C896.687 238.785 895.698 239.774 895.698 240.994C895.698 242.214 896.687 243.203 897.906 243.203Z" fill="#E76ECE"/>
<path id="Path_3" d="M985.465 239.715C988.831 239.715 991.56 236.985 991.56 233.619C991.56 230.252 988.831 227.522 985.465 227.522C982.099 227.522 979.37 230.252 979.37 233.619C979.37 236.985 982.099 239.715 985.465 239.715Z" fill="#E76ECE"/>
<ellipse id="Oval_3" cx="1011.25" cy="272.325" rx="4.45635" ry="4.45725" fill="#E76ECE"/>
<path id="Path_4" d="M200.808 140.946C203.371 140.95 205.684 139.409 206.667 137.041C207.651 134.674 207.112 131.947 205.301 130.133C203.49 128.319 200.764 127.775 198.396 128.755C196.027 129.735 194.483 132.046 194.483 134.61C194.483 138.105 197.313 140.94 200.808 140.946Z" fill="#E76ECE"/>
<path id="Path_5" d="M273.748 149.63C278.524 149.608 282.382 145.723 282.371 140.946C282.36 136.168 278.484 132.301 273.708 132.301C268.931 132.301 265.056 136.168 265.045 140.946C265.04 143.254 265.955 145.469 267.589 147.1C269.223 148.73 271.44 149.641 273.748 149.63Z" fill="#E76ECE"/>
<ellipse id="Oval_4" cx="279.034" cy="96.9828" rx="5.32564" ry="5.32671" fill="#E76ECE"/>
<ellipse id="Oval_5" cx="1246.19" cy="229.291" rx="4.32646" ry="4.32733" fill="#E76ECE"/>
<ellipse id="Oval_6" cx="1366.93" cy="218.748" rx="7.99345" ry="7.99507" fill="#E76ECE"/>
<path id="Shape_2" fill-rule="evenodd" clip-rule="evenodd" d="M1604.22 206.785C1603.58 207.823 1602.44 208.452 1601.22 208.444L1601.23 208.414C1599.49 208.416 1598 207.147 1597.73 205.425C1597.46 203.703 1598.49 202.041 1600.15 201.508C1601.81 200.975 1603.61 201.73 1604.39 203.287L1794.93 138.088L1784.73 154.078C1786.17 155.231 1786.77 157.142 1786.25 158.914C1785.73 160.685 1784.19 161.965 1782.35 162.153L1776.8 277.581C1778.83 278.062 1780.15 280.03 1779.83 282.095C1779.5 284.161 1777.64 285.626 1775.55 285.456C1773.47 285.287 1771.87 283.54 1771.88 281.449C1771.89 281.167 1771.92 280.886 1771.97 280.61L1604.22 206.785ZM1631.91 205.706L1604.71 205.446V205.456C1604.66 205.606 1604.66 205.736 1604.66 205.906L1765.72 276.732L1639.76 207.775C1638.73 209.273 1636.87 209.963 1635.11 209.499C1633.35 209.036 1632.07 207.519 1631.91 205.706ZM1640.47 205.936L1731.86 209.993C1731.93 211.88 1732.94 213.609 1734.54 214.61C1736.14 215.611 1738.13 215.753 1739.86 214.99L1773.52 278.201C1773.09 278.51 1772.73 278.896 1772.45 279.34L1640.22 206.905C1640.34 206.583 1640.43 206.248 1640.47 205.906V205.936ZM1740.7 214.46L1774.44 277.721V277.731C1774.89 277.56 1775.36 277.468 1775.84 277.462L1781.38 162.143C1780.63 162.067 1779.92 161.806 1779.29 161.383L1741.7 205.746C1742.87 206.97 1743.44 208.653 1743.24 210.338C1743.05 212.023 1742.12 213.534 1740.7 214.46ZM1778.52 160.734L1740.91 205.106C1739.94 204.391 1738.76 204.005 1737.56 204.007C1734.68 204.01 1732.26 206.151 1731.9 209.004L1640.49 204.906C1640.47 204.722 1640.45 204.538 1640.42 204.357L1777.6 159.254C1777.8 159.803 1778.12 160.305 1778.52 160.734ZM1783.84 153.498L1792.5 139.946L1604.71 204.227V204.417L1631.92 204.676C1632.17 202.785 1633.64 201.287 1635.53 200.996C1637.41 200.705 1639.27 201.691 1640.08 203.417L1777.33 158.285C1777.29 158.054 1777.26 157.82 1777.26 157.585C1777.26 156.369 1777.74 155.202 1778.6 154.342C1779.46 153.482 1780.63 152.998 1781.84 152.998C1782.54 153.007 1783.22 153.178 1783.84 153.498Z" fill="#E76ECE"/>
<ellipse id="Oval_7" cx="1638.19" cy="154.168" rx="3.12744" ry="3.12807" fill="#E76ECE"/>
<ellipse id="Oval_8" cx="1683.17" cy="155.447" rx="5.55545" ry="5.55657" fill="#E76ECE"/>
<ellipse id="Oval_9" cx="1606.74" cy="179.902" rx="2.62785" ry="2.62838" fill="#E76ECE"/>
<path id="Path_6" d="M1302.64 214.9C1306.32 214.9 1309.3 211.916 1309.3 208.234C1309.3 204.553 1306.32 201.568 1302.64 201.568C1298.95 201.568 1295.97 204.553 1295.97 208.234C1295.97 211.916 1298.95 214.9 1302.64 214.9Z" fill="#E76ECE"/>
<path id="Path_7" d="M1472.86 532.924C1472.86 530.766 1471.11 529.016 1468.95 529.016C1466.79 529.016 1465.04 530.766 1465.04 532.924C1465.04 535.082 1466.79 536.832 1468.95 536.832C1471.1 536.826 1472.85 535.08 1472.86 532.924Z" fill="#E76ECE"/>
<path id="Path_8" d="M1497.18 548.304C1497.18 547.418 1496.65 546.617 1495.83 546.275C1495.01 545.933 1494.07 546.118 1493.44 546.743C1492.82 547.368 1492.63 548.311 1492.96 549.13C1493.3 549.949 1494.1 550.483 1494.99 550.483C1496.19 550.483 1497.17 549.509 1497.18 548.304Z" fill="#E76ECE"/>
<ellipse id="Oval_10" cx="1499.36" cy="526.498" rx="1.18903" ry="1.18927" fill="#E76ECE"/>
<path id="Path_9" d="M1369.39 172.236C1370.75 172.236 1371.85 171.136 1371.85 169.778C1371.85 168.42 1370.75 167.319 1369.39 167.319C1368.03 167.319 1366.93 168.42 1366.93 169.778C1366.93 170.43 1367.19 171.055 1367.65 171.516C1368.11 171.977 1368.74 172.236 1369.39 172.236Z" fill="#E76ECE"/>
<ellipse id="Oval_11" cx="1347.06" cy="267.867" rx="2.45799" ry="2.45848" fill="#E76ECE"/>
<path id="Path_10" d="M1414.39 238.546C1415.39 238.55 1416.3 237.951 1416.68 237.029C1417.07 236.107 1416.86 235.043 1416.15 234.335C1415.45 233.627 1414.38 233.414 1413.46 233.796C1412.54 234.177 1411.94 235.078 1411.94 236.077C1411.94 237.436 1413.03 238.54 1414.39 238.546Z" fill="#E76ECE"/>
<ellipse id="Oval_12" cx="441.72" cy="192.894" rx="7.07421" ry="7.07563" fill="#E76ECE"/>
<path id="Path_11" d="M309.369 225.893C311.3 225.893 312.866 224.327 312.866 222.396C312.866 220.464 311.3 218.898 309.369 218.898C307.437 218.898 305.872 220.464 305.872 222.396C305.872 224.327 307.437 225.893 309.369 225.893Z" fill="#E76ECE"/>
<ellipse id="Oval_13" cx="335.897" cy="203.417" rx="4.83604" ry="4.83702" fill="#E76ECE"/>
<ellipse id="Oval_14" cx="320.16" cy="243.892" rx="1.71859" ry="1.71894" fill="#E76ECE"/>
<path id="Path_12" d="M476.192 167.28C478.311 167.28 480.029 165.561 480.029 163.442C480.029 161.322 478.311 159.604 476.192 159.604C474.073 159.604 472.355 161.322 472.355 163.442C472.355 164.46 472.759 165.436 473.479 166.155C474.198 166.875 475.174 167.28 476.192 167.28Z" fill="#E76ECE"/>
<ellipse id="Oval_15" cx="498.84" cy="192.232" rx="8.10476" ry="8.10361" transform="rotate(-67.36 498.84 192.232)" fill="#E76ECE"/>
<path id="Path_13" d="M243.503 478.807C241.959 478.807 240.567 479.738 239.976 481.164C239.385 482.591 239.712 484.233 240.804 485.325C241.895 486.416 243.537 486.743 244.963 486.152C246.389 485.561 247.319 484.169 247.319 482.625C247.319 480.517 245.611 478.807 243.503 478.807Z" fill="#E76ECE"/>
<path id="Path_14" d="M455.02 429.208C452.912 429.208 451.203 430.917 451.203 433.026C451.203 435.134 452.912 436.843 455.02 436.843C457.128 436.843 458.836 435.134 458.836 433.026C458.836 430.917 457.128 429.208 455.02 429.208Z" fill="#E76ECE"/>
<path id="Path_15" d="M266.754 472.341C265.584 472.341 264.635 473.29 264.635 474.46C264.635 475.63 265.584 476.579 266.754 476.579C267.923 476.579 268.872 475.63 268.872 474.46C268.872 473.29 267.923 472.341 266.754 472.341Z" fill="#E76ECE"/>
<path id="Path_16" d="M243.492 452.554C243.496 450.366 242.182 448.391 240.162 447.551C238.143 446.711 235.816 447.171 234.268 448.717C232.72 450.262 232.256 452.589 233.092 454.61C233.928 456.632 235.9 457.95 238.087 457.95C241.068 457.95 243.487 455.536 243.492 452.554Z" fill="#E76ECE"/>
<path id="Path_17" d="M475.472 441.271C474.369 441.271 473.474 442.165 473.474 443.269C473.474 444.373 474.369 445.268 475.472 445.268C476.576 445.268 477.471 444.373 477.471 443.269C477.471 442.165 476.576 441.271 475.472 441.271Z" fill="#E76ECE"/>
<ellipse id="Oval_16" cx="4.11781" cy="140.963" rx="6.66454" ry="6.66589" transform="rotate(-0.3 4.11781 140.963)" fill="#E76ECE"/>
<ellipse id="Oval_17" cx="61.2613" cy="157.968" rx="10.3216" ry="10.3235" transform="rotate(-12.77 61.2613 157.968)" fill="#E76ECE"/>
<path id="Path_18" d="M10.7732 112.963C12.2573 112.967 13.5975 112.076 14.1682 110.706C14.7389 109.336 14.4277 107.756 13.3797 106.705C12.3317 105.654 10.7537 105.339 9.38223 105.906C8.01074 106.473 7.11622 107.811 7.11621 109.295C7.1162 111.317 8.75189 112.958 10.7732 112.963Z" fill="#E76ECE"/>
<path id="Shape_3" fill-rule="evenodd" clip-rule="evenodd" d="M51.7296 411.469C51.7296 413.5 50.0834 415.147 48.0527 415.147C46.2402 415.145 44.7038 413.813 44.4456 412.019L-69.8208 416.236L124.81 339.014L50.9902 409.28C51.4686 409.91 51.7282 410.678 51.7296 411.469ZM50.2908 408.551L120.393 341.822L-64.0555 414.997L44.4356 410.999C44.5861 409.691 45.4314 408.567 46.6459 408.059C47.8603 407.551 49.2543 407.739 50.2908 408.551Z" fill="#E76ECE"/>
<path id="Shape_4" fill-rule="evenodd" clip-rule="evenodd" d="M141.186 579.245L132.923 337.494V336.315L54.1477 418.055C53.5649 417.64 52.8645 417.423 52.1493 417.435C50.4557 417.434 49.0219 418.685 48.7921 420.363L-40.4548 422.202C-40.7269 420.206 -42.3264 418.653 -44.3298 418.44C-46.3332 418.228 -48.2227 419.411 -48.9072 421.306C-49.5917 423.201 -48.8943 425.319 -47.2177 426.436C-45.5412 427.553 -43.3187 427.382 -41.8337 426.02L136.36 581.544C135.657 582.492 135.279 583.642 135.281 584.822C135.275 587.874 137.715 590.368 140.766 590.429C143.817 590.489 146.353 588.094 146.468 585.044C146.583 581.994 144.233 579.414 141.186 579.245ZM83.2244 469.153C82.5355 469.156 81.8558 469.313 81.2355 469.613L54.2576 423.471C55.0507 422.829 55.513 421.864 55.5166 420.843C55.5166 420.08 55.2557 419.339 54.7772 418.744L131.125 339.533L84.6727 469.453C84.2091 469.276 83.7201 469.175 83.2244 469.153ZM53.4583 423.991C53.0507 424.164 52.6121 424.253 52.1693 424.251H52.1593C50.4836 424.242 49.0617 423.019 48.8021 421.363L-40.4248 423.202C-40.4421 423.455 -40.4856 423.706 -40.5547 423.951L78.9674 472.061C79.2792 471.303 79.7859 470.641 80.4362 470.143L53.4583 423.991ZM-40.9144 424.871L78.6576 473.021C78.6107 473.282 78.584 473.546 78.5777 473.81C78.5746 475.335 79.3209 476.764 80.574 477.632C81.827 478.5 83.4266 478.697 84.8526 478.158L137.879 580.095C137.572 580.29 137.284 580.514 137.02 580.764L-41.1542 425.28C-41.0643 425.15 -40.9944 425.01 -40.9244 424.871H-40.9144ZM138.748 579.655C139.208 579.462 139.692 579.334 140.187 579.275L132.064 340.143L85.6919 469.843C87.0632 470.672 87.9093 472.15 87.9297 473.753C87.95 475.355 87.1416 476.854 85.7918 477.718L138.748 579.655Z" fill="#E76ECE"/>
<path id="Shape_5" fill-rule="evenodd" clip-rule="evenodd" d="M-28.7745 375.451C-26.7736 375.446 -25.153 373.825 -25.1475 371.823C-25.155 371.485 -25.2053 371.149 -25.2974 370.824L63.0703 332.058C63.9828 333.538 65.819 334.159 67.4426 333.537C69.0661 332.915 70.0176 331.226 69.7083 329.515C69.3989 327.804 67.9162 326.555 66.1777 326.541L59.6231 276.862C60.7874 276.45 61.4572 275.23 61.1796 274.026C60.9021 272.823 59.7655 272.019 58.5386 272.159C57.3117 272.299 56.3852 273.338 56.3857 274.573C56.3804 274.676 56.3804 274.78 56.3857 274.883L-13.4171 299.398C-14.0788 298.169 -15.4769 297.529 -16.8394 297.832C-18.202 298.136 -19.1968 299.308 -19.2746 300.702C-19.3525 302.096 -18.4943 303.372 -17.174 303.825L-28.6646 368.235H-28.8045C-30.731 368.337 -32.2412 369.929 -32.2412 371.858C-32.2412 373.788 -30.731 375.38 -28.8045 375.481L-28.7745 375.451ZM-25.697 369.934C-25.7864 369.782 -25.8901 369.638 -26.0068 369.505L17.9572 320.625C19.8035 322.104 22.233 322.64 24.53 322.074C26.827 321.508 28.7297 319.904 29.6776 317.737L62.5607 329.449C62.5122 329.689 62.4887 329.934 62.4907 330.179C62.4915 330.518 62.542 330.854 62.6406 331.178L-25.697 369.934ZM58.6039 276.972C58.2516 276.939 57.9107 276.83 57.6047 276.652L28.1788 309.372C29.5824 310.793 30.3687 312.711 30.3671 314.708C30.3665 315.429 30.2622 316.146 30.0573 316.837L62.9204 328.51C63.3823 327.622 64.1934 326.966 65.1586 326.701L58.6039 276.972ZM56.7454 275.812C56.7762 275.873 56.8131 275.93 56.8553 275.982L27.4295 308.662C25.5681 307.205 23.1358 306.696 20.8464 307.283C18.5569 307.87 16.6699 309.487 15.739 311.66L-13.0174 301.427C-13.0022 301.24 -13.0022 301.053 -13.0174 300.867C-13.0022 300.684 -13.0022 300.5 -13.0174 300.317L56.7454 275.812ZM-16.1449 303.985H-16.1948L-27.6354 368.345C-27.313 368.444 -27.0067 368.588 -26.7262 368.775L17.2378 319.905C15.861 318.491 15.0934 316.593 15.0996 314.619C15.1043 313.943 15.1984 313.271 15.3793 312.62L-13.4271 302.356C-13.9641 303.358 -15.0082 303.984 -16.1449 303.985Z" fill="#E76ECE"/>
<path id="Shape_6" fill-rule="evenodd" clip-rule="evenodd" d="M167.065 677.854C165.942 677.847 164.863 678.29 164.068 679.084L-61.3677 500.124C-59.7616 497.733 -59.8535 494.585 -61.5963 492.292C-63.339 489.999 -66.3469 489.067 -69.0801 489.975C-71.8133 490.883 -73.6669 493.429 -73.692 496.309C-73.7171 499.19 -71.9082 501.767 -69.1912 502.722L-107.27 641.847C-107.517 641.799 -107.768 641.772 -108.019 641.767C-110.542 641.883 -112.528 643.963 -112.528 646.489C-112.528 649.015 -110.542 651.095 -108.019 651.211C-106.992 651.2 -105.998 650.848 -105.192 650.211L-40.0851 719.889C-42.8012 722.733 -43.2819 727.042 -41.2592 730.415C-39.2365 733.787 -35.2094 735.392 -31.4219 734.335C-27.6344 733.277 -25.0208 729.818 -25.0374 725.885C-25.0422 725.426 -25.0823 724.968 -25.1573 724.516L163.078 683.421C163.785 685.453 165.906 686.63 168.004 686.155C170.103 685.679 171.509 683.703 171.271 681.564C171.033 679.426 169.227 677.807 167.075 677.804L167.065 677.854ZM163.478 679.853C163.247 680.219 163.078 680.621 162.979 681.042L-43.6122 654.319L-65.4843 502.912C-64.1454 502.617 -62.9286 501.92 -61.9971 500.914L163.478 679.853ZM-66.9431 503.092C-67.3761 503.095 -67.8082 503.051 -68.232 502.962L-106.311 642.146C-104.503 642.845 -103.311 644.585 -103.313 646.524V646.634L-44.6414 654.189L-66.4735 503.092H-66.9431ZM-39.3557 719.249L-104.462 649.562C-103.975 648.985 -103.632 648.3 -103.463 647.563L-44.5115 655.198L-35.5188 717.36C-36.9333 717.654 -38.2521 718.296 -39.3557 719.229V719.249ZM-33.7703 717.23C-29.8534 717.23 -26.417 719.842 -25.3671 723.616L162.889 682.452C162.862 682.32 162.845 682.186 162.839 682.052L-43.5123 655.328L-34.5196 717.23C-34.2701 717.215 -34.0198 717.215 -33.7703 717.23Z" fill="#E76ECE"/>
<path id="Shape_7" fill-rule="evenodd" clip-rule="evenodd" d="M548.422 709.395C548.241 709.402 548.062 709.419 547.883 709.445L533.035 651.401C535.302 650.589 536.721 648.332 536.47 645.936C536.22 643.541 534.365 641.627 531.979 641.301C529.593 640.976 527.293 642.324 526.411 644.565L373.216 600.312C373.526 598.496 372.79 596.659 371.311 595.559C369.833 594.459 367.862 594.283 366.212 595.103C364.562 595.923 363.511 597.6 363.494 599.443V599.813L273.098 616.103C272.621 614.788 271.258 614.017 269.886 614.286C268.514 614.555 267.542 615.783 267.595 617.18C267.649 618.577 268.712 619.727 270.101 619.89L272.319 670.389C271.032 670.863 270.188 672.102 270.22 673.473C270.251 674.845 271.15 676.044 272.458 676.458C273.765 676.872 275.191 676.409 276.006 675.306L480.129 748.401L480.329 748.471L544.956 715.851C546.055 717.493 548.161 718.13 549.987 717.374C551.812 716.618 552.851 714.679 552.469 712.74C552.087 710.804 550.394 709.405 548.422 709.395ZM548.422 709.395L548.413 709.395H548.423L548.422 709.395ZM546.914 709.685C546.235 709.947 545.641 710.389 545.195 710.964L480.578 671.049C481.306 669.567 481.427 667.861 480.918 666.292L526.611 648.812C527.487 650.59 529.295 651.716 531.277 651.721C531.548 651.714 531.819 651.688 532.086 651.641L546.914 709.685ZM526.031 646.524C526.031 646.188 526.064 645.853 526.131 645.524L372.946 601.322C372.197 603.175 370.399 604.389 368.4 604.39C368.209 604.38 368.019 604.36 367.831 604.33L362.205 629.514C363.665 630.118 364.616 631.543 364.613 633.122C364.607 633.296 364.59 633.47 364.563 633.642L468.968 665.752C469.937 663.451 472.157 661.925 474.651 661.844C477.146 661.762 479.461 663.14 480.578 665.372L526.241 647.913C526.109 647.461 526.038 646.994 526.031 646.524ZM366.851 604.08L361.236 629.224C361.061 629.197 360.884 629.181 360.706 629.175C359.045 629.177 357.57 630.238 357.039 631.813L273.328 617.082L363.674 600.802C364.125 602.354 365.315 603.581 366.851 604.08ZM273.098 618.061C272.775 618.958 272.025 619.633 271.1 619.86L273.328 670.179H273.438C274.535 670.181 275.556 670.743 276.146 671.668L357 634.251C356.872 633.875 356.804 633.48 356.8 633.082C356.794 632.982 356.794 632.882 356.8 632.782L273.098 618.061ZM276.535 672.618L276.543 672.614C276.713 673.203 276.69 673.832 276.475 674.407L479.739 747.202L474.743 674.656C471.228 674.624 468.394 671.767 468.388 668.25C468.393 667.728 468.46 667.208 468.588 666.701L364.314 634.601C363.756 635.946 362.496 636.868 361.046 636.992C359.595 637.117 358.197 636.422 357.419 635.191L276.543 672.614L276.535 672.588V672.618ZM475.762 674.606L480.758 747.172L544.526 714.982C544.357 714.531 544.269 714.054 544.266 713.572C544.271 712.972 544.404 712.379 544.656 711.834L480.059 671.948C479.054 673.388 477.499 674.35 475.762 674.606Z" fill="#E76ECE"/>
<path id="Shape_8" fill-rule="evenodd" clip-rule="evenodd" d="M277.365 734.66H277.645L277.695 734.64C279.292 734.64 280.732 735.602 281.342 737.079C281.952 738.555 281.613 740.254 280.482 741.382C279.351 742.51 277.652 742.846 276.178 742.231C274.703 741.617 273.744 740.175 273.748 738.577C273.739 737.964 273.876 737.358 274.148 736.808L167.825 663.973C166.124 666.052 163.215 666.684 160.805 665.498C158.395 664.312 157.121 661.621 157.73 659.004C158.34 656.388 160.673 654.537 163.359 654.539C163.858 654.539 164.356 654.606 164.837 654.739L175.778 624.358C174.332 623.577 173.643 621.878 174.138 620.31C174.632 618.742 176.17 617.746 177.803 617.936C179.436 618.127 180.704 619.45 180.824 621.09L251.386 626.217C251.776 624.32 253.468 622.975 255.403 623.024C257.338 623.073 258.96 624.502 259.252 626.416C259.545 628.33 258.424 630.178 256.592 630.804L277.365 734.66ZM275.836 735.109C276.013 735.018 276.197 734.941 276.386 734.879L255.613 631.024C255.516 631.029 255.42 631.029 255.323 631.024C254.951 631.018 254.581 630.961 254.224 630.854L236.099 673.287C236.987 673.826 237.57 674.751 237.674 675.784C237.778 676.817 237.391 677.839 236.628 678.544L275.836 735.109ZM176.708 624.707C176.938 624.756 177.172 624.779 177.407 624.777C179.022 624.781 180.421 623.657 180.764 622.079L251.326 627.216C251.4 628.567 252.152 629.789 253.325 630.464L235.18 672.898C233.547 672.437 231.835 673.307 231.243 674.896L169.124 661.055C169.139 660.802 169.139 660.548 169.124 660.295C169.122 658.042 167.812 655.995 165.767 655.049L176.708 624.707ZM168.914 662.054C168.786 662.435 168.622 662.804 168.424 663.154L274.737 735.989L275.047 735.689L235.839 679.114C234.805 679.627 233.579 679.567 232.599 678.956C231.62 678.345 231.027 677.27 231.033 676.116C231.028 676.043 231.028 675.969 231.033 675.896L168.914 662.054Z" fill="#E76ECE"/>
<path id="Path_19" d="M123.181 228.292C123.849 228.292 124.39 227.75 124.39 227.083C124.39 226.415 123.849 225.873 123.181 225.873C122.513 225.873 121.972 226.415 121.972 227.083C121.972 227.75 122.513 228.292 123.181 228.292Z" fill="#E76ECE"/>
<ellipse id="Oval_18" cx="152.037" cy="242.443" rx="3.20737" ry="3.20802" fill="#E76ECE"/>
<ellipse id="Oval_19" cx="152.367" cy="219.917" rx="4.45635" ry="4.45725" fill="#E76ECE"/>
<path id="Path_20" d="M123.181 245.731C123.181 247.133 124.317 248.269 125.719 248.269C127.121 248.269 128.257 247.133 128.257 245.731C128.257 244.329 127.121 243.193 125.719 243.193C124.32 243.198 123.187 244.331 123.181 245.731Z" fill="#E76ECE"/>
<path id="Shape_9" fill-rule="evenodd" clip-rule="evenodd" d="M1730.41 581.084C1730.49 580.756 1730.53 580.421 1730.52 580.085C1730.53 578.915 1730.06 577.793 1729.24 576.966C1728.41 576.138 1727.29 575.675 1726.12 575.678H1725.78L1718.78 540.03C1720.2 539.514 1721.07 538.074 1720.86 536.577C1720.65 535.08 1719.42 533.935 1717.91 533.833C1716.4 533.73 1715.03 534.697 1714.62 536.152L1392.53 501.553V501.443C1392.53 500.197 1392.04 499.001 1391.16 498.119C1390.28 497.238 1389.08 496.744 1387.84 496.746C1387.4 496.751 1386.96 496.818 1386.55 496.946L1357.39 431.347C1358.2 430.732 1358.48 429.635 1358.05 428.71C1357.62 427.785 1356.61 427.281 1355.62 427.499C1354.62 427.718 1353.91 428.599 1353.91 429.618C1353.91 429.92 1353.98 430.219 1354.09 430.497L1302.97 469.023C1302.54 468.63 1301.97 468.413 1301.38 468.414C1300.2 468.409 1299.18 469.248 1298.97 470.407C1298.75 471.566 1299.4 472.713 1300.5 473.132C1301.6 473.55 1302.85 473.121 1303.45 472.112L1383.26 500.404C1383.19 500.732 1383.15 501.067 1383.14 501.403C1383.12 503.796 1384.9 505.822 1387.27 506.105C1389.65 506.387 1391.85 504.834 1392.39 502.503L1714.57 537.211C1714.62 538.933 1716.03 540.3 1717.75 540.299H1717.87L1724.87 575.947C1723.43 576.402 1722.33 577.56 1721.94 579.016L1533.98 552.262V551.942C1533.85 548.821 1531.28 546.357 1528.16 546.357C1525.03 546.357 1522.46 548.821 1522.33 551.942C1522.29 554.817 1524.39 557.278 1527.23 557.699L1520 684.56V578.436C1521.75 578.097 1522.98 576.503 1522.86 574.718C1522.87 573.039 1521.79 571.548 1520.19 571.032C1518.59 570.516 1516.85 571.093 1515.87 572.46L1243.69 450.665C1244.46 448.43 1244.1 445.961 1242.73 444.039C1241.35 442.118 1239.13 440.981 1236.77 440.991C1236.39 440.993 1236.01 441.027 1235.64 441.091L1208.55 325.302C1208.96 325.177 1209.36 325.027 1209.75 324.852L1234.34 371.803C1232.86 372.94 1232.27 374.896 1232.87 376.664C1233.47 378.433 1235.13 379.622 1237 379.619H1237.2L1245.41 414.947C1244.02 415.482 1243.12 416.844 1243.17 418.336C1243.22 419.829 1244.22 421.123 1245.65 421.558C1247.08 421.993 1248.62 421.473 1249.5 420.263L1298.69 446.627C1298.49 447.117 1298.39 447.639 1298.39 448.166C1298.39 450.512 1300.29 452.414 1302.64 452.414C1304.98 452.414 1306.88 450.512 1306.88 448.166C1306.88 447.436 1306.69 446.72 1306.32 446.088L1358.86 407.531C1359.71 408.312 1360.97 408.433 1361.96 407.827C1362.94 407.221 1363.4 406.037 1363.08 404.927C1362.77 403.817 1361.75 403.052 1360.6 403.054C1360.52 403.049 1360.44 403.049 1360.37 403.054L1346.38 355.933C1348.05 355.208 1349.09 353.508 1348.98 351.686C1348.86 349.864 1347.61 348.311 1345.86 347.805C1344.11 347.298 1342.22 347.947 1341.15 349.427L1282.06 318.716C1282.33 318.063 1282.46 317.363 1282.46 316.657C1282.46 316.209 1282.4 315.762 1282.29 315.328L1365.98 285.687C1366.97 287.887 1369.16 289.303 1371.57 289.304H1371.68L1378.98 361.77C1376.74 362.25 1375.21 364.344 1375.44 366.63C1375.67 368.915 1377.58 370.662 1379.88 370.684L1389.14 462.557C1385.84 463.157 1383.49 466.092 1383.61 469.445C1383.73 472.797 1386.3 475.549 1389.64 475.903C1392.97 476.256 1396.06 474.104 1396.89 470.852L1542.54 496.556V497.126C1542.61 500.147 1544.87 502.664 1547.87 503.051C1550.86 503.438 1553.69 501.579 1554.53 498.675L1703.12 524.889V525.019C1703.11 526.874 1704.51 528.431 1706.36 528.611C1708.2 528.79 1709.88 527.533 1710.23 525.711C1710.57 523.889 1709.48 522.103 1707.69 521.591L1717.69 452.274H1717.77C1718.5 452.271 1719.21 452.071 1719.83 451.694L1794.42 552.322L1780.21 357.332C1782.73 356.918 1784.65 354.857 1784.89 352.317C1785.12 349.777 1783.61 347.398 1781.21 346.529L1794.2 297.799L1794.34 297.289L1746.38 287.935C1746.65 285.308 1745.06 282.846 1742.56 282C1740.06 281.154 1737.3 282.148 1735.92 284.397L1569.75 201.908C1571.22 198.486 1570.22 194.504 1567.32 192.174C1564.41 189.845 1560.31 189.741 1557.29 191.92C1554.27 194.099 1553.07 198.026 1554.37 201.518L1480.76 234.178C1479.23 231.279 1475.92 229.797 1472.75 230.588C1469.57 231.38 1467.34 234.24 1467.35 237.516C1467.35 238.342 1467.5 239.161 1467.79 239.935L1376.94 280.28C1375.6 277.824 1372.77 276.589 1370.06 277.279C1367.35 277.97 1365.45 280.41 1365.44 283.208C1365.45 283.738 1365.52 284.265 1365.65 284.777L1281.92 314.409C1281.45 313.398 1280.69 312.554 1279.72 311.99L1307.93 251.528C1308.47 251.726 1309.04 251.831 1309.62 251.837C1311.69 251.841 1313.55 250.6 1314.34 248.692C1315.14 246.784 1314.7 244.586 1313.24 243.123C1311.78 241.66 1309.59 241.222 1307.68 242.011C1305.77 242.801 1304.52 244.664 1304.52 246.731C1304.52 246.794 1304.52 246.857 1304.52 246.92L1094.59 275.553C1093.98 273.04 1091.6 271.371 1089.04 271.666C1086.47 271.962 1084.53 274.128 1084.51 276.712C1084.51 277.093 1084.56 277.472 1084.65 277.841L977.341 312.38C976.489 310.492 974.434 309.455 972.41 309.891C970.385 310.327 968.939 312.117 968.938 314.189C968.943 314.407 968.963 314.624 968.998 314.839L843.381 348.538C842.245 345.622 839.098 344.029 836.077 344.839C833.055 345.649 831.127 348.603 831.601 351.696L775.237 366.806C774.65 365.223 773.303 364.043 771.656 363.67C770.009 363.297 768.285 363.782 767.074 364.958L590.219 222.645C591.957 220.123 591.889 216.771 590.05 214.321C588.21 211.872 585.011 210.872 582.104 211.839C579.198 212.807 577.235 215.524 577.229 218.588C577.232 218.892 577.256 219.196 577.299 219.497L495.366 236.047C494.684 234.276 492.851 233.228 490.979 233.541C489.107 233.853 487.713 235.439 487.643 237.336V237.606L360.397 263.32C359.356 259.558 355.492 257.325 351.713 258.301C347.934 259.277 345.634 263.103 346.545 266.899C347.456 270.695 351.241 273.06 355.051 272.215L390.732 392.391C390.028 392.642 389.357 392.977 388.734 393.39L314.804 290.853C315.904 289.866 316.28 288.301 315.747 286.922C315.214 285.543 313.884 284.638 312.406 284.647C311.796 284.65 311.196 284.812 310.667 285.117L237.517 183.729C239.423 182.019 239.952 179.247 238.813 176.954C237.673 174.661 235.143 173.411 232.63 173.898C230.116 174.385 228.237 176.49 228.035 179.042L9.2144 194.233C8.66911 189.734 5.02036 186.247 0.501778 185.908C-4.0168 185.569 -8.1451 188.471 -9.35591 192.839C-10.5667 197.206 -8.5224 201.82 -4.47439 203.857L-92.2525 403.244C-93.5273 402.75 -94.8822 402.496 -96.2492 402.494C-101.538 402.491 -106.08 406.255 -107.058 411.454C-108.037 416.653 -105.174 421.811 -100.246 423.731L-125.166 497.926L-124.166 498.235L-99.1868 424.051C-98.2127 424.334 -97.2037 424.479 -96.1893 424.481C-92.9765 424.481 -89.9244 423.075 -87.8361 420.633L145.723 602.521C143.802 605.532 143.994 609.429 146.202 612.237C148.409 615.044 152.15 616.15 155.528 614.993C158.907 613.836 161.186 610.67 161.21 607.098L383.258 588.2C383.887 592.38 387.628 595.37 391.843 595.061C396.057 594.752 399.323 591.247 399.335 587.021C399.334 586.599 399.297 586.177 399.225 585.761L896.088 475.419C896.113 475.505 896.141 475.59 896.171 475.674C896.195 475.74 896.221 475.805 896.248 475.869L829.492 510.558C827.519 507.32 823.4 506.126 820.002 507.809C816.605 509.491 815.055 513.491 816.433 517.024L576.909 630.064C575.462 627.813 572.716 626.772 570.141 627.498C567.565 628.224 565.767 630.547 565.708 633.222C565.649 635.897 567.344 638.297 569.884 639.135C572.425 639.974 575.215 639.055 576.76 636.87C603.977 650.861 716.325 708.885 736.798 719.649C736.639 720.064 736.554 720.504 736.549 720.948C736.653 722.978 738.328 724.57 740.361 724.57C742.393 724.57 744.068 722.978 744.172 720.948C744.165 720.387 744.035 719.835 743.793 719.329C759.5 708.596 824.297 659.186 877.583 618.331C878.711 619.515 880.346 620.072 881.961 619.823C883.576 619.574 884.968 618.55 885.686 617.082L945.058 638.579C944.997 638.848 944.967 639.123 944.968 639.398C944.975 639.789 945.039 640.176 945.158 640.548L924.884 650.082C924.206 649.151 923.006 648.762 921.911 649.12C920.817 649.477 920.077 650.499 920.078 651.651C920.078 651.87 920.108 652.089 920.168 652.3L802.005 707.906C801.241 706.747 799.782 706.265 798.478 706.739C797.174 707.213 796.366 708.521 796.525 709.9C796.684 711.279 797.768 712.368 799.146 712.533C800.523 712.699 801.834 711.896 802.315 710.594L1008.96 748.321L1009.21 749.021L1080.84 637.739L1060.11 686.249C1059.87 686.186 1059.61 686.153 1059.35 686.149C1057.97 686.155 1056.75 687.074 1056.36 688.408C1055.98 689.742 1056.51 691.17 1057.69 691.916L1033.34 748.881L1097.51 718.21C1098.45 719.719 1100.14 720.595 1101.91 720.493C1103.69 720.391 1105.27 719.327 1106.03 717.72L1189.57 748.281L1190.06 748.821L1217.41 667.011C1217.67 667.072 1217.93 667.102 1218.19 667.101C1218.97 667.1 1219.72 666.847 1220.34 666.382L1297.28 748.401L1515.23 703.629C1516.03 705.328 1517.73 706.415 1519.61 706.417C1520.69 706.433 1521.75 706.08 1522.6 705.418L1573.56 748.811L1595.3 644.875C1595.38 644.88 1595.47 644.88 1595.56 644.875C1596.19 644.869 1596.81 644.701 1597.36 644.385L1677.14 749.99L1676.7 747.991L1794.6 603.381L1730.41 581.084ZM1385.63 497.326C1385.16 497.588 1384.74 497.926 1384.39 498.325L1346.29 470.592C1346.5 470.179 1346.62 469.72 1346.62 469.253C1346.62 468.124 1345.98 467.093 1344.97 466.585L1355.96 431.816H1356.12C1356.19 431.822 1356.25 431.824 1356.32 431.824C1356.39 431.824 1356.45 431.822 1356.52 431.816L1385.63 497.326ZM1303.53 469.813C1303.6 469.954 1303.66 470.101 1303.69 470.253L1340.56 468.863C1340.76 467.361 1342.05 466.242 1343.56 466.255H1343.94L1354.93 431.477C1354.87 431.44 1354.81 431.4 1354.75 431.357C1354.72 431.335 1354.69 431.311 1354.66 431.287L1303.53 469.813ZM1303.95 471.252L1340.66 469.833C1340.96 471.214 1342.17 472.204 1343.58 472.211C1344.36 472.211 1345.1 471.91 1345.66 471.372L1383.84 499.095C1383.77 499.215 1383.7 499.335 1383.64 499.465L1303.95 471.252ZM1377.33 285.187L1377.28 285.177L1377.33 285.167L1377.33 285.187ZM1372.65 289.244C1374.83 288.84 1376.62 287.288 1377.33 285.187L1537.71 324.982C1537.57 325.706 1537.49 326.443 1537.49 327.181C1537.5 327.852 1537.57 328.521 1537.69 329.18L1384.14 364.708C1383.51 362.929 1381.84 361.732 1379.95 361.71L1372.65 289.244ZM1775.77 356.273L1719.36 444.529C1719.16 444.436 1718.94 444.359 1718.72 444.299L1724.78 402.095H1725.11C1728.07 402.098 1730.56 399.876 1730.9 396.932C1731.24 393.988 1729.31 391.26 1726.43 390.592L1740.42 293.032H1740.72C1741.57 293.031 1742.41 292.836 1743.17 292.462L1775.9 347.279C1774.46 348.314 1773.6 349.969 1773.57 351.741C1773.54 353.512 1774.35 355.193 1775.76 356.273H1775.77ZM1725.5 390.412L1739.49 292.852C1737.54 292.402 1735.98 290.964 1735.36 289.064L1559.6 325.462C1559.71 326.046 1559.76 326.638 1559.76 327.231C1559.76 328.456 1559.56 329.672 1559.15 330.829L1719.94 393.66C1720.92 391.667 1722.95 390.406 1725.17 390.412H1725.5ZM1380.84 370.604C1382.92 370.161 1384.41 368.324 1384.41 366.197C1384.4 366.026 1384.38 365.856 1384.35 365.687L1537.85 330.179C1538.27 331.669 1538.99 333.057 1539.96 334.257L1394.98 464.326C1393.73 463.131 1392.06 462.465 1390.33 462.467H1390.11L1380.84 370.604ZM1397.04 469.213V469.893L1542.54 495.587C1543.33 493.203 1545.38 491.455 1547.86 491.05V338.324C1545.07 338.219 1542.42 337.025 1540.49 334.996L1395.61 465.066C1396.53 466.251 1397.04 467.71 1397.04 469.213ZM1554.7 497.726C1554.7 497.546 1554.63 497.356 1554.63 497.166C1554.54 493.985 1552.09 491.371 1548.92 491.07V338.324C1551.13 338.189 1553.26 337.453 1555.08 336.195L1704.04 522.58C1703.68 522.968 1703.42 523.428 1703.27 523.93L1554.7 497.726ZM1704.87 521.791C1705.4 521.396 1706.03 521.151 1706.68 521.081L1716.68 451.994C1714.93 451.599 1713.69 450.055 1713.68 448.266C1713.68 446.014 1715.5 444.189 1717.75 444.189H1717.82L1723.88 401.985C1721.24 401.372 1719.37 399.02 1719.36 396.308C1719.37 395.744 1719.45 395.182 1719.6 394.639L1558.84 331.678C1558.18 333.144 1557.2 334.447 1555.99 335.496L1704.87 521.791ZM1720.57 451.124C1721.42 450.321 1721.87 449.186 1721.81 448.02C1721.75 446.854 1721.19 445.771 1720.26 445.058L1776.66 356.813C1777.43 357.216 1778.28 357.432 1779.15 357.442L1793.14 549.004L1720.57 451.124ZM1780.2 346.309L1793.11 298.089L1746.17 288.964C1745.82 290.172 1745.07 291.228 1744.05 291.963L1776.78 346.779C1777.53 346.408 1778.36 346.217 1779.2 346.219C1779.54 346.216 1779.87 346.246 1780.2 346.309ZM1735.16 288.035L1559.4 324.433C1559.01 322.852 1558.27 321.379 1557.24 320.115L1645.74 240.724L1735.55 285.317C1735.29 285.972 1735.15 286.67 1735.15 287.375C1735.14 287.595 1735.14 287.816 1735.16 288.035ZM1556.57 319.376L1644.77 240.245L1569.28 202.768C1567.8 205.329 1565.07 206.907 1562.11 206.905H1561.69L1550.26 316.158C1552.66 316.519 1554.87 317.648 1556.57 319.376ZM1554.77 202.388C1555.97 204.707 1558.19 206.326 1560.76 206.755L1549.31 316.058H1548.65C1546.23 316.059 1543.87 316.852 1541.94 318.316L1479.4 242.693C1480.81 241.354 1481.61 239.492 1481.61 237.546C1481.61 236.718 1481.46 235.895 1481.18 235.118L1554.77 202.388ZM1472.81 244.472C1470.82 244.003 1469.12 242.695 1468.16 240.884L1377.31 281.229C1377.54 281.872 1377.65 282.547 1377.65 283.228C1377.65 283.563 1377.63 283.897 1377.57 284.227L1537.91 324.043C1538.5 322.085 1539.6 320.326 1541.12 318.956L1478.58 243.333C1476.91 244.526 1474.81 244.941 1472.81 244.472ZM1520.44 696.873L1528.27 557.779C1528.46 557.772 1528.65 557.755 1528.84 557.729L1550.37 657.497C1548.63 658.033 1547.3 659.44 1546.87 661.205C1546.43 662.97 1546.95 664.836 1548.23 666.122L1522.58 697.862C1521.96 697.357 1521.22 697.017 1520.44 696.873ZM1716.37 640.128C1716.88 637.769 1718.95 636.071 1721.36 636.02L1725.33 584.432C1724.37 584.251 1723.51 583.751 1722.87 583.013L1655.85 629.624C1656.35 630.507 1656.62 631.506 1656.62 632.523C1656.62 632.592 1656.62 632.663 1656.62 632.732L1716.37 640.128ZM1722.26 582.224L1655.03 628.835C1654.01 627.559 1652.47 626.798 1650.84 626.756V603.271C1652.93 603.034 1654.55 601.317 1654.66 599.213C1654.66 599.095 1654.67 598.976 1654.67 598.858C1654.67 598.76 1654.66 598.661 1654.66 598.564L1721.96 581.674C1722.05 581.852 1722.15 582.026 1722.26 582.194V582.224ZM1649.84 626.756V603.271V603.241C1647.84 602.947 1646.37 601.199 1646.42 599.173C1646.5 598.78 1646.62 598.4 1646.8 598.044L1533.28 554.471C1533.27 554.483 1533.26 554.496 1533.25 554.509C1533.24 554.517 1533.23 554.526 1533.22 554.535L1533.2 554.556C1533.18 554.578 1533.16 554.601 1533.14 554.624C1533.14 554.635 1533.13 554.645 1533.12 554.656C1533.12 554.659 1533.12 554.663 1533.12 554.666L1533.12 554.674C1533.12 554.679 1533.12 554.685 1533.12 554.691L1645.98 628.955C1647 627.822 1648.35 627.051 1649.84 626.756ZM1523.31 698.552L1523.32 698.542C1524.86 700.334 1524.85 702.983 1523.3 704.768L1572.38 746.532L1552.72 667.581C1551.42 667.82 1550.08 667.525 1549 666.761L1523.32 698.542L1523.3 698.522L1523.31 698.552ZM1551.35 657.287C1551.54 657.257 1551.74 657.237 1551.93 657.227V657.197C1553.72 657.196 1555.38 658.113 1556.33 659.626L1592.04 642.396C1591.91 642.027 1591.84 641.638 1591.84 641.247C1591.84 640.256 1592.23 639.307 1592.94 638.609L1531.2 556.889C1530.77 557.164 1530.3 557.379 1529.81 557.529L1551.35 657.287ZM1595.55 637.529C1594.92 637.535 1594.29 637.704 1593.74 638.019L1531.99 556.28C1532.13 556.157 1532.26 556.026 1532.39 555.889C1532.49 555.784 1532.58 555.674 1532.67 555.56L1645.62 629.754C1645.17 630.606 1644.93 631.556 1644.92 632.523V632.932L1599.05 640.158C1598.59 638.602 1597.18 637.525 1595.55 637.499V637.529ZM1716.29 641.117L1656.46 633.762V633.732C1656.03 635.798 1654.52 637.472 1652.51 638.109L1676.33 746.322L1718.99 645.814C1717.33 644.896 1716.29 643.148 1716.29 641.247V641.117ZM1719.89 646.214C1721.49 646.761 1723.26 646.494 1724.63 645.5C1725.99 644.506 1726.79 642.908 1726.77 641.217C1726.77 640.532 1726.64 639.853 1726.38 639.218L1791.82 605.239L1678 744.883L1719.89 646.214ZM1725.94 638.349L1792.5 603.77L1730.1 582.024C1729.4 583.489 1727.94 584.444 1726.32 584.502L1722.38 636.05C1723.84 636.281 1725.13 637.116 1725.94 638.349ZM1721.76 579.995V580.115C1721.75 580.308 1721.75 580.501 1721.76 580.695L1654.53 597.564C1653.92 596.133 1652.55 595.171 1651 595.08C1649.45 594.989 1647.98 595.785 1647.2 597.134L1533.72 553.541C1533.72 553.482 1533.74 553.422 1533.76 553.362L1533.76 553.361C1533.77 553.321 1533.79 553.281 1533.8 553.241L1721.76 579.995ZM1515.01 699.841C1515.6 698.151 1517.14 696.973 1518.93 696.843L1518.84 578.626C1517.98 578.618 1517.15 578.311 1516.5 577.756L1396.15 672.698C1396.69 673.572 1396.97 674.579 1396.97 675.606C1396.98 675.792 1396.98 675.979 1396.97 676.166L1515.01 699.841ZM1297.51 747.252L1221.07 665.752L1256.79 686.809C1255.78 689.046 1256.24 691.67 1257.94 693.436C1259.65 695.201 1262.25 695.751 1264.52 694.824C1266.79 693.898 1268.27 691.681 1268.25 689.228L1386.03 676.785C1386.16 677.5 1386.44 678.18 1386.85 678.784L1297.51 747.252ZM1105.23 712.423L1133.87 690.287L1133.89 690.267C1133.75 689.964 1133.67 689.634 1133.66 689.297C1133.66 688.836 1133.81 688.385 1134.07 688.008L1087.25 637.15C1086.68 637.554 1086.04 637.852 1085.36 638.029L1101.24 710.834C1101.38 710.824 1101.52 710.824 1101.66 710.834C1103.02 710.838 1104.31 711.415 1105.23 712.423ZM881.25 609.867C879.761 609.877 878.354 610.551 877.413 611.705L848.957 592.237C849.393 591.488 849.624 590.636 849.626 589.769C849.619 589.521 849.595 589.274 849.556 589.029L946.796 563.305C946.866 563.435 946.946 563.565 947.026 563.685C929.111 577.506 907.429 594.196 884.917 611.476C883.973 610.451 882.643 609.868 881.25 609.867ZM738.867 717.45C739.34 717.245 739.85 717.14 740.365 717.14C740.577 717.146 740.788 717.173 740.995 717.22L776.406 611.286C775.831 611.013 775.322 610.618 774.917 610.126L706.203 654.929C706.764 656.197 706.399 657.683 705.314 658.546L738.867 717.45ZM577.869 633.022L774.018 608.397C774.101 608.708 774.215 609.009 774.358 609.297L705.644 654.099C704.921 653.293 703.823 652.931 702.762 653.149C701.701 653.367 700.835 654.132 700.488 655.159L577.849 634.032V633.362C577.849 633.24 577.857 633.182 577.864 633.139C577.865 633.129 577.866 633.12 577.867 633.111C577.868 633.105 577.869 633.098 577.87 633.092C577.87 633.085 577.87 633.078 577.871 633.071L577.871 633.067V633.057L577.87 633.047L577.87 633.038L577.869 633.022ZM820.52 521.191L780.553 603.71C781.344 604.212 781.954 604.954 782.291 605.829L839.554 590.688C839.5 590.402 839.47 590.111 839.464 589.819C839.475 587.679 840.831 585.778 842.85 585.071C844.869 584.364 847.115 585.005 848.457 586.671L903.492 550.213C902.833 549.107 902.488 547.843 902.493 546.556C902.494 545.928 902.578 545.303 902.743 544.697L829.912 517.434C828.303 521.011 824.152 522.672 820.52 521.191ZM634.452 492.339C634.132 490.7 632.695 489.518 631.025 489.521C630.721 489.523 630.418 489.567 630.126 489.651L615.238 454.982C617.419 453.803 618.969 451.723 619.475 449.296L895.239 473.74L634.452 492.339ZM242.423 284.977L233.631 185.189C232.682 185.172 231.752 184.921 230.923 184.459L190.316 250.468C191.53 251.392 192.244 252.83 192.244 254.356C192.24 255.148 192.041 255.927 191.665 256.624L238.247 287.465C239.276 286.14 240.768 285.251 242.423 284.977ZM770.571 373.452C771.921 373.447 773.211 372.895 774.148 371.923L835.008 420.893V421.023L835.278 421.103L880.791 457.75L866.422 456.271L719.772 385.485C719.993 384.928 720.108 384.335 720.112 383.736C720.11 383.376 720.067 383.017 719.982 382.667L765.945 370.334C766.709 372.218 768.538 373.451 770.571 373.452ZM842.782 354.234C841.668 355.914 839.801 356.941 837.786 356.983L836.007 419.924L905.3 393.02C905.173 392.588 905.106 392.141 905.101 391.691C905.101 391.003 905.244 390.323 905.52 389.692L842.782 354.234ZM1051.28 325.662C1051.35 327.026 1052.47 328.097 1053.84 328.1C1054.14 328.095 1054.44 328.038 1054.72 327.93L1096.2 396.518C1095.77 396.831 1095.38 397.197 1095.04 397.607L977.231 316.258C977.398 315.941 977.525 315.605 977.611 315.258L1051.28 325.662ZM1205.2 293.242C1203.12 292.945 1201.56 291.165 1201.54 289.054L1094.61 277.731V277.851L1197.52 313.309C1198.9 310.212 1201.83 308.089 1205.2 307.743V293.242ZM1287.32 382.297L1241.36 375.351C1241.36 375.305 1241.36 375.258 1241.36 375.211C1241.35 373.848 1240.71 372.564 1239.63 371.743L1274.31 321.434C1275.12 321.895 1276.03 322.136 1276.97 322.134C1277.3 322.135 1277.63 322.109 1277.97 322.054L1292.75 375.831C1289.96 376.929 1287.92 379.361 1287.32 382.297ZM1214.89 316.188H1271.57C1271.58 315.851 1271.63 315.517 1271.7 315.188L1209.59 291.013C1209.01 292.368 1207.68 293.245 1206.2 293.242V307.743C1210.87 307.823 1214.68 311.521 1214.89 316.188ZM1330.52 525.579L1515.12 573.969V574.029H1274.52C1274.44 572.962 1274.09 571.932 1273.52 571.03L1330.52 525.579ZM1385.94 675.636C1385.94 672.577 1388.41 670.095 1391.47 670.089H1391.51C1393.08 670.088 1394.58 670.757 1395.63 671.928L1515.87 577.037L1515.81 576.957L1268.01 687.279C1268.11 687.575 1268.19 687.879 1268.23 688.188L1385.94 675.746V675.636ZM1231.83 453.803C1232.22 454.136 1232.63 454.434 1233.07 454.692L1204.98 515.005C1203.69 514.591 1202.27 514.826 1201.17 515.638C1200.07 516.449 1199.43 517.738 1199.45 519.103C1199.46 519.802 1199.64 520.487 1199.98 521.101L1168.01 546.805V546.526L1167.74 546.815L1167.43 519.762L1231.83 453.803ZM1225.97 543.348L1263.19 570.471C1263.94 569.525 1264.95 568.811 1266.09 568.412L1238.01 455.482C1237.57 455.566 1237.12 455.609 1236.68 455.612H1235.96L1222.85 535.652C1224.43 536.062 1225.73 537.198 1226.35 538.715C1226.96 540.232 1226.82 541.95 1225.97 543.348ZM1234.96 455.442L1221.86 535.492H1221.51C1220.49 535.49 1219.49 535.793 1218.63 536.362L1206.98 521.841C1207.63 521.076 1207.99 520.105 1207.98 519.103C1207.98 517.577 1207.16 516.169 1205.84 515.405L1233.96 455.122C1234.29 455.252 1234.62 455.359 1234.96 455.442ZM1206.24 522.55C1205.51 523.102 1204.61 523.4 1203.7 523.4L1203.72 523.39C1203.22 523.391 1202.72 523.307 1202.25 523.14L1156.63 621L1156.84 621.11L1217.92 544.437C1216.9 543.471 1216.32 542.13 1216.3 540.724C1216.29 539.318 1216.85 537.967 1217.85 536.981L1206.24 522.55ZM1167.73 548.324L1200.55 521.951C1200.8 522.235 1201.09 522.486 1201.4 522.7L1155.78 620.57L1155.4 620.45L1167.73 548.324ZM1218.76 545.056L1157.67 621.739L1157.64 621.729C1158.02 622.084 1158.34 622.495 1158.59 622.948L1262.16 576.857C1261.46 575.028 1261.64 572.979 1262.65 571.3L1225.42 544.157C1223.73 546.059 1220.9 546.441 1218.76 545.056ZM1268.37 580.894C1271.57 580.685 1274.16 578.222 1274.54 575.038H1515.17C1515.17 575.038 1515.28 575.718 1515.38 575.987L1267.62 686.309C1266.71 684.552 1264.98 683.362 1263.01 683.131L1268.37 580.894ZM1268.15 568.162C1269.98 568.162 1271.72 568.945 1272.93 570.311L1329.73 525.129L1242.2 453.323C1241.35 454.249 1240.27 454.937 1239.07 455.322L1267.15 568.252C1267.48 568.199 1267.82 568.169 1268.15 568.162ZM1231.16 453.103L1167.44 518.383L1166.39 424.701L1229.69 446.257C1229.5 446.93 1229.4 447.626 1229.4 448.326C1229.39 450.072 1230 451.762 1231.13 453.093L1231.16 453.103ZM1166.45 519.392L1165.39 424.361L1105.48 403.964C1104.78 405.57 1103.42 406.802 1101.76 407.351L1134.44 542.848C1134.95 542.751 1135.46 542.701 1135.97 542.698C1138.05 542.701 1140.06 543.457 1141.63 544.827L1166.45 519.392ZM1057.94 532.454L1059.31 471.362C1060.56 471.296 1061.75 470.857 1062.74 470.103L1129.84 545.226C1128.72 546.345 1127.93 547.754 1127.57 549.294L1061.96 537.391V537.051C1061.96 534.728 1060.24 532.764 1057.94 532.454ZM1019.86 495.149C1021.12 494.814 1022.47 495.132 1023.45 495.997L1053.92 468.874C1053.27 468.019 1052.85 467.01 1052.7 465.945L991.13 469.483C990.996 471.42 989.447 472.958 987.509 473.077C985.572 473.196 983.846 471.859 983.476 469.953L907.099 473.95C907.109 474.11 907.109 474.27 907.099 474.43L1017.16 497.666C1017.58 496.428 1018.6 495.484 1019.86 495.149ZM390.102 491.779L394.049 410.04C397.809 409.857 401.064 407.366 402.222 403.784L602.938 446.757C602.906 447.046 602.889 447.336 602.888 447.627C602.892 448.249 602.962 448.868 603.098 449.475L393.929 494.847C393.314 493.199 391.845 492.021 390.102 491.779ZM191.455 444.928L155.145 599.023C156.623 599.434 157.958 600.247 159.002 601.372L386.815 406.972C385.969 406.009 385.336 404.878 384.957 403.654L199.449 437.373C199.464 437.619 199.464 437.866 199.449 438.112C199.451 439.946 198.725 441.705 197.43 443.002C196.135 444.299 194.377 445.028 192.544 445.028C192.179 445.025 191.815 444.992 191.455 444.928ZM243.363 298.209L246.45 356.313C245.172 356.555 244.12 357.462 243.692 358.691L146.262 331.258C146.335 330.91 146.372 330.555 146.372 330.199C146.37 329.685 146.296 329.174 146.152 328.68L237.467 294.361C238.54 296.659 240.828 298.144 243.363 298.189V298.209ZM243.492 359.641L145.982 332.188V332.198C145.517 333.381 144.655 334.367 143.544 334.986L190.016 431.696C191.856 430.962 193.922 431.057 195.687 431.956C197.452 432.856 198.742 434.473 199.229 436.394L384.677 402.684C384.564 402.128 384.508 401.563 384.507 400.995C384.51 400.462 384.561 399.931 384.657 399.406L250.377 361.57C249.601 363.066 247.902 363.835 246.266 363.432C244.63 363.028 243.484 361.556 243.492 359.871C243.488 359.794 243.488 359.717 243.492 359.641ZM719.313 386.364L863.495 455.961L782.331 447.627L718.913 386.914C719.062 386.746 719.195 386.565 719.313 386.374V386.364ZM866.143 457.491L782.031 449.096L622.982 449.066L895.838 473.051C895.905 472.646 895.999 472.245 896.118 471.852L866.143 457.491ZM1093.67 401.675C1093.69 402.56 1093.9 403.43 1094.3 404.223L990.381 466.825C989.098 465.145 986.699 464.819 985.015 466.095L913.993 394.839C914.563 394.153 914.932 393.323 915.062 392.441L1093.67 401.675ZM1130.6 544.552L1130.64 544.587L1130.59 544.567L1130.6 544.552ZM1133.53 543.088C1132.47 543.383 1131.48 543.88 1130.6 544.552L1063.54 469.453C1064.78 468.163 1065.4 466.406 1065.26 464.625C1065.12 462.845 1064.22 461.209 1062.8 460.129L1096.96 406.952C1097.85 407.426 1098.84 407.674 1099.85 407.671C1100.19 407.673 1100.52 407.646 1100.85 407.591L1133.53 543.088ZM991.16 468.494C991.106 468.217 991.026 467.946 990.92 467.684L1094.84 405.093C1095.19 405.582 1095.61 406.016 1096.09 406.382L1061.93 459.559C1060.01 458.531 1057.69 458.574 1055.81 459.675C1053.92 460.776 1052.75 462.775 1052.7 464.956L991.16 468.494ZM913.304 395.559C912.42 396.287 911.312 396.689 910.167 396.698H910.126C908.251 396.69 906.538 395.633 905.69 393.96L837.016 420.633L983.856 467.544C983.985 467.281 984.143 467.033 984.326 466.805L913.304 395.559ZM907.119 472.951C906.812 470.805 905.31 469.021 903.247 468.354C901.184 467.686 898.922 468.253 897.417 469.813L884.088 459.09L981.298 469.083L907.119 472.951ZM896.638 470.842L896.787 470.592L882.229 458.91L869.06 457.55L896.638 470.842ZM1099.85 395.349L1090.75 281.719C1092.35 281.374 1093.69 280.286 1094.36 278.791L1197.36 314.249C1197.13 315.042 1197.02 315.862 1197.01 316.687C1197.01 318.552 1197.59 320.37 1198.68 321.884L1104.32 397.288C1103.16 396.051 1101.54 395.35 1099.85 395.349ZM1089.72 281.859H1089.66C1088.78 281.859 1087.92 281.628 1087.16 281.189L1055.74 323.833C1056.17 324.302 1056.42 324.92 1056.42 325.562C1056.41 326.286 1056.1 326.975 1055.57 327.461L1097.06 396.038C1097.61 395.764 1098.2 395.576 1098.81 395.479L1089.72 281.859ZM970.997 317.927C972.824 319.111 975.245 318.761 976.662 317.107L1094.48 398.467C1094.08 399.158 1093.82 399.923 1093.72 400.716L915.092 391.491C915.039 390.251 914.526 389.076 913.654 388.193L970.997 317.927ZM882.619 457.97L982.647 468.244L837.916 421.992L882.619 457.97ZM715.386 388.473C716.346 388.554 717.308 388.33 718.134 387.833L780.832 448.106H619.604C619.703 445.535 618.594 443.065 616.607 441.43L664.298 364.298C664.892 364.56 665.537 364.687 666.186 364.668C667.716 364.66 669.132 363.862 669.933 362.559L710.9 382.327C710.743 382.784 710.662 383.263 710.66 383.746C710.66 386.357 712.776 388.473 715.386 388.473ZM615.778 440.591L663.429 363.638L663.419 363.598C662.336 362.752 661.713 361.447 661.734 360.073C661.756 358.699 662.42 357.415 663.528 356.603L587.511 224.984C586.943 225.258 586.341 225.456 585.722 225.574L611.161 439.252H611.251C612.858 439.253 614.429 439.718 615.778 440.591ZM584.403 225.724H584.743L610.162 439.362C609.109 439.503 608.092 439.842 607.165 440.361L553.309 358.412C556.081 356.543 557.573 353.28 557.172 349.961C556.772 346.642 554.547 343.827 551.41 342.671L583.014 225.594C583.47 225.672 583.931 225.709 584.393 225.704L584.403 225.724ZM552.459 358.911C551.184 359.571 549.769 359.914 548.333 359.911C545.968 359.911 543.701 358.97 542.031 357.296C540.36 355.621 539.425 353.351 539.43 350.986C539.428 350.154 539.546 349.326 539.78 348.528L359.817 268.577C359.732 268.742 359.639 268.902 359.537 269.057C390.438 291.323 538.8 396.041 592.518 433.956L592.617 434.025L592.689 434.076C597.484 437.461 601.518 440.308 604.637 442.51C605.121 441.882 605.693 441.326 606.335 440.861L552.459 358.911ZM358.948 269.866C392.97 294.391 565.449 416.106 604.077 443.349C604.007 443.459 603.937 443.569 603.877 443.679L445.087 364.878C445.305 364.331 445.417 363.747 445.417 363.159C445.431 361.311 444.403 359.613 442.76 358.768C441.117 357.923 439.138 358.075 437.643 359.161L358.608 270.216C358.729 270.107 358.842 269.99 358.948 269.866ZM441.041 368.036C439.577 368.202 438.115 367.699 437.064 366.667L401.253 396.118C402.176 397.566 402.665 399.248 402.662 400.965C402.663 401.576 402.603 402.186 402.482 402.784L603.108 445.788C603.205 445.387 603.329 444.993 603.478 444.608L444.608 365.807C443.816 367.05 442.505 367.869 441.041 368.036ZM384.897 398.437L250.707 360.65C250.759 360.401 250.786 360.146 250.787 359.891C250.783 358.001 249.332 356.429 247.449 356.273L244.352 298.149C245.995 297.935 247.498 297.115 248.568 295.85L385.886 396.218C385.462 396.908 385.129 397.651 384.897 398.427V398.437ZM191.115 257.454C190.193 258.596 188.806 259.26 187.339 259.263C186.601 259.263 185.873 259.096 185.21 258.773L144.034 325.732C144.774 326.242 145.375 326.929 145.783 327.731L237.118 293.412C236.942 292.804 236.851 292.175 236.848 291.543C236.847 290.405 237.139 289.286 237.697 288.295L191.115 257.454ZM142.625 335.386L189.117 432.126C186.703 433.477 185.328 436.14 185.624 438.891C185.92 441.643 187.829 443.952 190.476 444.758L154.176 598.803C153.737 598.719 153.293 598.672 152.847 598.663L141.416 335.656C141.828 335.613 142.234 335.523 142.625 335.386ZM387.485 407.681L159.611 602.141H159.561C159.821 602.491 160.052 602.862 160.251 603.251L384.827 497.916C384.678 497.467 384.601 496.999 384.597 496.526C384.602 493.99 386.573 491.893 389.103 491.729L393.05 410.04C390.978 409.919 389.012 409.086 387.485 407.681ZM394.249 496.536C394.243 496.295 394.217 496.054 394.169 495.817L603.388 450.425C603.608 451.051 603.903 451.649 604.267 452.204L397.776 582.333C396.325 580.321 394.03 579.087 391.551 578.986L389.983 501.303C392.409 501.029 394.244 498.979 394.249 496.536ZM604.866 453.013L398.316 583.183C398.352 583.251 398.386 583.322 398.421 583.395C398.456 583.472 398.492 583.552 398.529 583.636L398.545 583.673L627.628 493.918C627.552 493.631 627.511 493.336 627.508 493.039C627.5 491.818 628.129 490.682 629.167 490.04L614.289 455.392C610.963 456.702 607.172 455.745 604.866 453.013ZM906.899 475.409L1016.97 498.645V498.965C1016.97 499.331 1017.03 499.695 1017.14 500.044L916.141 543.457C914.947 540.984 912.443 539.412 909.697 539.41H909.377L902.643 479.287C904.657 478.862 906.283 477.378 906.889 475.409H906.899ZM946.363 562.359L946.377 562.356L946.367 562.376L946.363 562.359ZM946.277 561.426C946.271 561.74 946.3 562.053 946.363 562.359L849.276 588.06C849.198 587.855 849.108 587.655 849.007 587.46L904.081 551.043C905.613 552.95 908.014 553.942 910.445 553.67C912.875 553.399 914.998 551.902 916.072 549.704L946.277 561.007C946.267 561.146 946.267 561.287 946.277 561.426ZM950.114 557.549C948.525 557.549 947.1 558.526 946.527 560.007L916.471 548.754C916.7 548.04 916.818 547.295 916.821 546.546C916.818 545.802 916.7 545.064 916.471 544.357L1017.49 500.944C1017.51 500.981 1017.53 501.018 1017.55 501.054C1017.58 501.096 1017.6 501.136 1017.63 501.174L952.901 558.738C952.167 557.984 951.157 557.561 950.104 557.569L950.114 557.549ZM1024.36 500.785C1023.68 502.076 1022.34 502.886 1020.89 502.893L1020.88 502.913C1020.42 502.927 1019.97 502.863 1019.54 502.723L951.213 635.781C951.482 635.935 951.734 636.119 951.962 636.33L1053.68 539.86C1053.04 539.058 1052.69 538.066 1052.68 537.041C1052.69 534.63 1054.54 532.626 1056.95 532.424L1058.32 471.342C1056.92 471.198 1055.62 470.593 1054.61 469.623L1024.13 496.726C1024.95 497.933 1025.04 499.494 1024.36 500.785ZM1054.35 540.569C1055.54 541.605 1057.17 541.959 1058.68 541.509C1060.19 541.059 1061.36 539.867 1061.79 538.351L1127.4 550.253C1127.36 550.585 1127.33 550.919 1127.33 551.253C1127.33 552.355 1127.54 553.447 1127.95 554.471L952.712 636.93L1054.35 540.569ZM1143.85 554.788C1142.47 557.914 1139.37 559.927 1135.95 559.917L1135.94 559.937C1134.46 559.93 1133 559.538 1131.71 558.798L1087.27 627.845C1087.49 628.001 1087.7 628.172 1087.89 628.355L1166.75 547.825L1166.45 520.781L1142.32 545.496C1144.63 548.015 1145.23 551.661 1143.85 554.788ZM1088.55 629.105L1166.49 549.514L1154.39 620.26H1154C1151.08 620.26 1148.72 622.621 1148.71 625.537L1089.56 631.423C1089.4 630.59 1089.05 629.804 1088.54 629.125L1088.55 629.105ZM1262.61 577.756L1159.02 623.848C1159.47 625.127 1159.4 626.535 1158.8 627.755L1215.57 661.225C1216.55 660.085 1218.13 659.674 1219.54 660.195C1220.95 660.717 1221.89 662.06 1221.89 663.563C1221.89 663.993 1221.81 664.419 1221.66 664.823L1257.37 685.88C1258.41 684.283 1260.15 683.277 1262.06 683.171L1267.39 580.934C1265.39 580.69 1263.61 579.512 1262.61 577.756ZM1513.87 572.679L1330.68 524.579L1242.75 452.434C1242.93 452.163 1243.1 451.883 1243.24 451.594L1513.87 572.679ZM1230.01 445.298C1230.89 443.369 1232.55 441.911 1234.58 441.301L1207.49 325.512C1206.98 325.604 1206.46 325.651 1205.94 325.652C1203.39 325.647 1200.96 324.557 1199.26 322.654L1104.91 398.057C1105.9 399.5 1106.21 401.303 1105.76 402.994L1230.01 445.298ZM1210.6 324.373C1213.15 322.838 1214.77 320.145 1214.94 317.177H1271.62C1271.75 318.613 1272.44 319.939 1273.55 320.865L1238.85 371.214C1238.28 370.957 1237.67 370.824 1237.05 370.824C1236.42 370.828 1235.81 370.964 1235.24 371.224L1210.6 324.373ZM1241.24 376.331C1240.84 377.804 1239.7 378.963 1238.24 379.389L1246.39 414.677C1246.49 414.672 1246.58 414.672 1246.68 414.677C1247.64 414.68 1248.56 415.078 1249.22 415.776L1288.38 388.423C1287.61 387.085 1287.2 385.569 1287.2 384.026V383.276L1241.24 376.331ZM1249.95 419.324C1250.09 418.947 1250.17 418.548 1250.17 418.145C1250.16 417.595 1250.03 417.054 1249.78 416.566L1288.92 389.413C1290.57 391.699 1293.19 393.078 1296.01 393.14L1301.71 444.109C1300.69 444.315 1299.8 444.893 1299.19 445.728L1249.95 419.324ZM1296.97 392.8L1302.65 443.869H1302.66C1303.84 443.872 1304.95 444.361 1305.75 445.218L1358.24 406.732C1358.08 406.392 1357.99 406.02 1357.99 405.643C1357.98 405.536 1357.98 405.429 1357.99 405.323L1304.11 387.424C1302.88 390.378 1300.15 392.435 1296.97 392.8ZM1359.35 403.364C1358.93 403.595 1358.58 403.942 1358.35 404.363L1304.48 386.474C1304.71 385.678 1304.83 384.854 1304.83 384.026C1304.83 382.386 1304.37 380.779 1303.5 379.389L1341.23 354.644C1342.04 355.702 1343.3 356.323 1344.63 356.323C1344.9 356.322 1345.16 356.295 1345.42 356.243L1359.35 403.364ZM1340.66 353.804C1340.15 352.702 1340.13 351.436 1340.6 350.317L1281.59 319.686C1280.95 320.667 1280.02 321.42 1278.92 321.834L1293.68 375.521C1294.43 375.316 1295.2 375.212 1295.97 375.211C1298.68 375.21 1301.23 376.451 1302.9 378.579L1340.66 353.804ZM1278.81 311.571C1278.23 311.353 1277.6 311.241 1276.98 311.241C1274.92 311.24 1273.04 312.4 1272.11 314.239L1210.07 290.064C1210.28 289.34 1210.28 288.569 1210.07 287.845L1305.15 249.089C1305.59 249.918 1306.25 250.609 1307.05 251.088L1278.81 311.571ZM1304.75 248.18C1304.72 248.092 1304.69 248.001 1304.67 247.91L1094.76 276.582V276.742L1201.76 288.065C1202.14 286.327 1203.56 285.01 1205.33 284.76C1207.09 284.511 1208.82 285.382 1209.67 286.946L1304.75 248.18ZM1084.98 278.791C1085.29 279.48 1085.75 280.091 1086.33 280.58L1054.93 323.193C1054.27 322.877 1053.51 322.858 1052.84 323.141C1052.16 323.424 1051.64 323.981 1051.41 324.672L977.741 314.309C977.746 314.269 977.746 314.229 977.741 314.189C977.736 313.9 977.706 313.613 977.651 313.329L1084.98 278.791ZM970.217 317.297C969.814 316.875 969.495 316.38 969.278 315.838L843.671 349.487C843.963 350.785 843.826 352.142 843.281 353.355L906.05 388.853C907.605 386.653 910.624 386.083 912.874 387.564L970.217 317.297ZM831.811 352.675C832.525 354.931 834.465 356.581 836.807 356.923L835.068 419.654L774.777 371.144C775.286 370.35 775.56 369.428 775.567 368.485C775.56 368.25 775.534 368.016 775.487 367.786L831.811 352.675ZM765.605 368.485C765.605 367.505 765.893 366.545 766.434 365.727L589.609 223.425C589.242 223.825 588.83 224.181 588.38 224.484L664.378 356.093C664.935 355.847 665.537 355.721 666.146 355.723C667.592 355.703 668.954 356.396 669.789 357.577C670.624 358.757 670.824 360.273 670.323 361.63L711.289 381.397C712.152 379.861 713.803 378.936 715.564 379.004C717.325 379.071 718.9 380.119 719.642 381.717L765.695 369.375C765.635 369.082 765.605 368.784 765.605 368.485ZM577.499 220.477C578.122 222.729 579.809 224.533 582.015 225.304L550.461 342.362C548.489 341.858 546.402 342.064 544.566 342.941L493.787 240.684C494.928 239.952 495.62 238.692 495.626 237.336V237.027L577.499 220.477ZM491.649 241.314C489.943 241.3 488.434 240.204 487.892 238.586L360.627 264.28C360.67 264.584 360.693 264.891 360.697 265.199C360.694 266.035 360.546 266.864 360.257 267.648L540.11 347.598C540.828 345.858 542.08 344.392 543.687 343.411L492.878 241.104C492.481 241.235 492.067 241.306 491.649 241.314ZM356 271.925C356.663 271.685 357.285 271.348 357.849 270.926L436.894 359.871C435.371 361.52 435.172 363.997 436.414 365.867L400.644 395.329C398.498 392.639 395.015 391.396 391.651 392.121L356 271.925ZM386.445 395.399C386.871 394.862 387.353 394.373 387.884 393.94L313.985 291.453C313.5 291.703 312.962 291.833 312.416 291.833C310.757 291.834 309.315 290.691 308.939 289.074L250.157 291.743C250.125 292.915 249.78 294.057 249.158 295.051L386.445 395.399ZM309.848 285.746C309.238 286.372 308.882 287.202 308.849 288.075L250.107 290.743C249.707 287.399 246.87 284.883 243.503 284.887H243.423L234.63 185.109C235.371 184.989 236.08 184.724 236.718 184.329L309.848 285.746ZM230.094 183.899C228.923 182.938 228.182 181.55 228.035 180.042L9.26436 195.232V195.392C9.26701 197.664 8.45113 199.86 6.96625 201.578L137.15 326.142C138.771 324.638 141.141 324.267 143.145 325.202L184.341 258.243C182.655 256.97 181.976 254.758 182.657 252.757C183.338 250.756 185.226 249.419 187.339 249.439C188.073 249.443 188.798 249.614 189.457 249.939L230.094 183.899ZM-3.55514 204.267C-0.156944 205.551 3.67664 204.774 6.30679 202.268L136.5 326.831C135.775 327.781 135.382 328.944 135.381 330.139C135.385 330.573 135.435 331.005 135.531 331.428L-86.0276 409.38C-87.0385 406.885 -88.93 404.847 -91.3432 403.654L-3.55514 204.267ZM-85.2582 413.488C-85.2463 415.763 -85.9449 417.985 -87.2566 419.844L146.332 601.732C147.713 600.055 149.69 598.981 151.848 598.733L140.387 335.616C138.386 335.449 136.635 334.203 135.821 332.368L-85.7278 410.32C-85.4189 411.347 -85.2607 412.414 -85.2582 413.488ZM161.12 606.139C161.048 605.456 160.89 604.784 160.65 604.14L385.216 498.845C385.982 500.244 387.395 501.17 388.983 501.313L390.552 579.006C386.359 579.349 383.13 582.852 383.128 587.061V587.25L161.12 606.139ZM628.028 494.797L398.925 584.582H398.915C398.934 584.663 398.957 584.743 398.985 584.822L894.739 474.74L634.452 493.338C634.312 494.83 633.229 496.063 631.768 496.395C630.307 496.727 628.798 496.082 628.028 494.797ZM896.688 476.799C897.729 478.435 899.534 479.426 901.474 479.427H901.603L908.348 539.55C905.997 539.984 904.02 541.568 903.082 543.767L830.242 516.504C830.447 515.827 830.552 515.123 830.552 514.415C830.551 513.408 830.344 512.411 829.942 511.487L896.688 476.799ZM819.601 520.761C818.442 520.101 817.485 519.137 816.833 517.973L577.389 630.944C577.537 631.296 577.654 631.66 577.739 632.033L773.868 607.358C773.868 604.963 775.81 603.021 778.205 603.021C778.692 603.03 779.174 603.118 779.633 603.281L819.601 520.761ZM577.269 636.01C577.431 635.692 577.558 635.357 577.649 635.011L700.308 656.148C700.308 656.964 700.633 657.747 701.21 658.324C701.787 658.902 702.57 659.226 703.386 659.226C703.751 659.221 704.113 659.154 704.455 659.026L738.017 717.99C737.73 718.214 737.474 718.476 737.258 718.769C716.595 707.896 604.896 650.262 577.269 636.01ZM741.944 717.54C742.468 717.782 742.93 718.141 743.293 718.589C757.671 708.696 818.861 662.104 876.964 617.582C876.464 616.789 876.197 615.871 876.194 614.933C876.197 614.112 876.406 613.304 876.804 612.585L848.337 593.107C847.199 594.493 845.405 595.162 843.637 594.86C841.869 594.559 840.399 593.333 839.784 591.648L782.501 606.798C782.536 607 782.556 607.204 782.561 607.408C782.564 608.56 782.108 609.666 781.294 610.481C780.481 611.297 779.376 611.755 778.224 611.755C777.925 611.752 777.628 611.719 777.335 611.655L741.944 717.54ZM886.036 616.183C886.153 615.773 886.213 615.349 886.216 614.923C886.215 614.001 885.955 613.097 885.467 612.315C910.024 593.466 931.315 577.06 942.951 568.095L943.074 568L943.953 567.323L947.676 564.455C948.358 565.021 949.217 565.332 950.104 565.334C952.239 565.334 953.971 563.602 953.971 561.466C953.966 560.817 953.794 560.18 953.471 559.618L1018.29 501.973L1018.64 502.263L950.254 635.451C948.3 634.83 946.194 635.789 945.378 637.669L886.036 616.183ZM950.215 643.451C948.398 643.936 946.483 643.138 945.547 641.507L925.304 651.031C925.36 651.247 925.39 651.468 925.394 651.691C925.391 652.012 925.33 652.33 925.214 652.63L981.988 681.342C982.973 679.741 984.636 678.677 986.503 678.455C988.37 678.233 990.236 678.877 991.57 680.203L1129.21 556.729C1128.89 556.336 1128.6 555.915 1128.36 555.47L953.021 637.989C953.193 638.453 953.285 638.943 953.291 639.438C953.294 641.319 952.031 642.965 950.215 643.451ZM922.736 654.349C923.497 654.364 924.226 654.046 924.734 653.48L981.578 682.272C981.276 683.015 981.12 683.809 981.118 684.61V685L802.674 708.696L920.578 653.21C921.081 653.899 921.883 654.308 922.736 654.309V654.349ZM981.228 685.96L802.754 709.695L1008.63 747.282L988.892 690.497C987.272 690.953 985.537 690.726 984.089 689.869C982.642 689.011 981.608 687.599 981.228 685.96ZM989.831 690.147C991.997 689.136 993.381 686.961 993.378 684.57C993.383 683.277 992.974 682.016 992.209 680.973L1129.87 557.439C1130.18 557.743 1130.51 558.023 1130.87 558.278L1086.39 627.356C1083.8 626.124 1080.69 627.011 1079.14 629.427C1077.58 631.843 1078.06 635.037 1080.26 636.89L1009.52 746.822L989.831 690.147ZM1083.92 638.249C1083.24 638.244 1082.56 638.116 1081.93 637.869L1061.05 686.699C1061.95 687.274 1062.5 688.269 1062.5 689.337C1062.5 689.754 1062.42 690.165 1062.25 690.547L1097.86 712.693C1098.48 711.918 1099.31 711.349 1100.26 711.064L1084.37 638.249H1083.92ZM1035.33 746.902L1058.64 692.346C1059.78 692.647 1060.99 692.256 1061.73 691.346L1097.34 713.493C1096.99 714.165 1096.81 714.912 1096.8 715.671C1096.81 716.248 1096.91 716.819 1097.11 717.36L1035.33 746.902ZM1134.5 691.056L1105.85 713.203C1106.31 713.952 1106.55 714.812 1106.56 715.691C1106.55 716.082 1106.5 716.471 1106.41 716.85L1188.13 746.752L1137.06 691.266C1136.72 691.471 1136.34 691.578 1135.94 691.576C1135.42 691.576 1134.91 691.392 1134.5 691.056ZM1189.69 746.962L1137.8 690.607C1138.06 690.233 1138.19 689.79 1138.19 689.338C1138.19 688.094 1137.18 687.084 1135.94 687.079C1135.55 687.082 1135.17 687.189 1134.83 687.389L1088.08 636.53C1089.13 635.463 1089.72 634.028 1089.72 632.533V632.443L1148.86 626.546C1149.26 628.61 1150.84 630.241 1152.89 630.694C1154.94 631.146 1157.07 630.332 1158.29 628.625L1214.98 662.064C1214.16 663.784 1214.85 665.838 1216.54 666.721L1189.69 746.962ZM1387.54 679.444L1299.51 746.962L1514.91 702.709C1514.83 702.345 1514.78 701.973 1514.78 701.6C1514.78 701.331 1514.81 701.064 1514.86 700.8L1396.84 677.135C1396.3 679.039 1394.78 680.506 1392.85 680.983C1390.93 681.46 1388.91 680.873 1387.54 679.444ZM1573.2 745.643L1553.7 667.301C1555.03 666.839 1556.11 665.854 1556.69 664.574C1557.28 663.294 1557.31 661.831 1556.79 660.525L1592.47 643.276C1592.92 643.942 1593.57 644.444 1594.33 644.705L1573.2 745.643ZM1599.28 641.177C1599.28 642.168 1598.88 643.116 1598.18 643.816L1675.2 745.763L1651.54 638.249C1651.29 638.289 1651.03 638.309 1650.78 638.309C1648.1 638.308 1645.77 636.481 1645.13 633.882L1599.28 641.097V641.177Z" fill="#E76ECE"/>
<path id="Shape_10" fill-rule="evenodd" clip-rule="evenodd" d="M1120.23 640.807C1119.95 639.748 1119.02 638.988 1117.93 638.915C1116.83 638.842 1115.81 639.472 1115.39 640.484C1114.96 641.496 1115.23 642.666 1116.05 643.396C1116.87 644.125 1118.06 644.254 1119.02 643.715L1178.68 714.332C1178.38 714.722 1178.22 715.2 1178.22 715.691C1178.21 716.786 1178.98 717.733 1180.05 717.946C1181.13 718.159 1182.2 717.578 1182.61 716.562C1183.02 715.546 1182.65 714.383 1181.72 713.792L1197.99 669.619L1198.12 669.26L1154.16 638.279L1120.23 640.807ZM1157.35 654.859L1120.3 641.867L1153.63 639.358L1158.56 653.679C1158.06 653.953 1157.64 654.361 1157.35 654.859ZM1157.02 655.778L1119.97 642.786C1119.93 642.89 1119.88 642.991 1119.82 643.086L1179.2 713.342L1160.61 659.376C1160.45 659.408 1160.29 659.425 1160.13 659.426C1158.41 659.42 1157.02 658.026 1157.02 656.308C1157.01 656.131 1157.01 655.954 1157.02 655.778ZM1160.08 653.21C1159.89 653.215 1159.7 653.235 1159.51 653.27L1154.97 640.068L1194.25 667.811L1163.14 656.887C1163.18 656.703 1163.2 656.516 1163.2 656.328C1163.2 654.606 1161.8 653.21 1160.08 653.21ZM1180.25 713.422H1180.49C1180.58 713.43 1180.68 713.444 1180.77 713.462L1196.83 669.789L1162.8 657.797C1162.5 658.334 1162.05 658.772 1161.51 659.056L1180.25 713.422Z" fill="#E76ECE"/>
</g>
</g>
</g>
</g>
</svg>
