<svg width="1679" height="577" viewBox="0 0 1679 577" fill="none" xmlns="http://www.w3.org/2000/svg">
<path fill-rule="evenodd" clip-rule="evenodd" d="M1730.41 408.084C1730.49 407.756 1730.53 407.421 1730.52 407.085C1730.53 405.915 1730.06 404.793 1729.24 403.966C1728.41 403.138 1727.29 402.675 1726.12 402.678H1725.78L1718.78 367.03C1720.2 366.514 1721.07 365.074 1720.86 363.577C1720.65 362.08 1719.42 360.935 1717.91 360.833C1716.4 360.73 1715.03 361.697 1714.62 363.152L1392.53 328.553V328.443C1392.53 327.197 1392.04 326.001 1391.16 325.119C1390.28 324.238 1389.08 323.744 1387.84 323.746C1387.4 323.751 1386.96 323.818 1386.55 323.946L1357.39 258.347C1358.2 257.732 1358.48 256.635 1358.05 255.71C1357.62 254.785 1356.61 254.281 1355.62 254.499C1354.62 254.718 1353.91 255.599 1353.91 256.618C1353.91 256.92 1353.98 257.219 1354.09 257.497L1302.97 296.023C1302.54 295.63 1301.97 295.413 1301.38 295.414C1300.2 295.409 1299.18 296.248 1298.97 297.407C1298.75 298.566 1299.4 299.713 1300.5 300.132C1301.6 300.55 1302.85 300.121 1303.45 299.112L1383.26 327.404C1383.19 327.732 1383.15 328.067 1383.14 328.403C1383.12 330.796 1384.9 332.822 1387.27 333.105C1389.65 333.387 1391.85 331.834 1392.39 329.503L1714.57 364.211C1714.62 365.933 1716.03 367.3 1717.75 367.299H1717.87L1724.87 402.947C1723.43 403.402 1722.33 404.56 1721.94 406.016L1533.98 379.262V378.942C1533.85 375.821 1531.28 373.357 1528.16 373.357C1525.03 373.357 1522.46 375.821 1522.33 378.942C1522.29 381.817 1524.39 384.278 1527.23 384.699L1520 511.56V405.436C1521.75 405.097 1522.98 403.503 1522.86 401.718C1522.87 400.039 1521.79 398.548 1520.19 398.032C1518.59 397.516 1516.85 398.093 1515.87 399.46L1243.69 277.665C1244.46 275.43 1244.1 272.961 1242.73 271.039C1241.35 269.118 1239.13 267.981 1236.77 267.991C1236.39 267.993 1236.01 268.027 1235.64 268.091L1208.55 152.302C1208.96 152.177 1209.36 152.027 1209.75 151.852L1234.34 198.803C1232.86 199.94 1232.27 201.896 1232.87 203.664C1233.47 205.433 1235.13 206.622 1237 206.619H1237.2L1245.41 241.947C1244.02 242.482 1243.12 243.844 1243.17 245.336C1243.22 246.829 1244.22 248.123 1245.65 248.558C1247.08 248.993 1248.62 248.473 1249.5 247.263L1298.69 273.627C1298.49 274.117 1298.39 274.639 1298.39 275.166C1298.39 277.512 1300.29 279.414 1302.64 279.414C1304.98 279.414 1306.88 277.512 1306.88 275.166C1306.88 274.436 1306.69 273.72 1306.32 273.088L1358.86 234.531C1359.71 235.312 1360.97 235.433 1361.96 234.827C1362.94 234.221 1363.4 233.037 1363.08 231.927C1362.77 230.817 1361.75 230.052 1360.6 230.054C1360.52 230.049 1360.44 230.049 1360.37 230.054L1346.38 182.933C1348.05 182.208 1349.09 180.508 1348.98 178.686C1348.86 176.864 1347.61 175.311 1345.86 174.805C1344.11 174.298 1342.22 174.947 1341.15 176.427L1282.06 145.716C1282.33 145.063 1282.46 144.363 1282.46 143.657C1282.46 143.209 1282.4 142.762 1282.29 142.328L1365.98 112.687C1366.97 114.887 1369.16 116.303 1371.57 116.304H1371.68L1378.98 188.77C1376.74 189.25 1375.21 191.344 1375.44 193.63C1375.67 195.915 1377.58 197.662 1379.88 197.684L1389.14 289.557C1385.84 290.157 1383.49 293.092 1383.61 296.445C1383.73 299.797 1386.3 302.549 1389.64 302.903C1392.97 303.256 1396.06 301.104 1396.89 297.852L1542.54 323.556V324.126C1542.61 327.147 1544.87 329.664 1547.87 330.051C1550.86 330.438 1553.69 328.579 1554.53 325.675L1703.12 351.889V352.019C1703.11 353.874 1704.51 355.431 1706.36 355.611C1708.2 355.79 1709.88 354.533 1710.23 352.711C1710.57 350.889 1709.48 349.103 1707.69 348.591L1717.69 279.274H1717.77C1718.5 279.271 1719.21 279.071 1719.83 278.694L1794.42 379.322L1780.21 184.332C1782.73 183.918 1784.65 181.857 1784.89 179.317C1785.12 176.777 1783.61 174.398 1781.21 173.529L1794.2 124.799L1794.34 124.289L1746.38 114.935C1746.65 112.308 1745.06 109.846 1742.56 109C1740.06 108.154 1737.3 109.148 1735.92 111.397L1569.75 28.9082C1571.22 25.486 1570.22 21.5036 1567.32 19.1741C1564.41 16.8445 1560.31 16.7405 1557.29 18.9199C1554.27 21.0993 1553.07 25.0262 1554.37 28.5184L1480.76 61.1783C1479.23 58.2792 1475.92 56.7972 1472.75 57.5885C1469.57 58.3798 1467.34 61.2398 1467.35 64.5162C1467.35 65.342 1467.5 66.1608 1467.79 66.9347L1376.94 107.28C1375.6 104.824 1372.77 103.589 1370.06 104.279C1367.35 104.97 1365.45 107.41 1365.44 110.208C1365.45 110.738 1365.52 111.265 1365.65 111.777L1281.92 141.409C1281.45 140.398 1280.69 139.554 1279.72 138.99L1307.93 78.5276C1308.47 78.7264 1309.04 78.8312 1309.62 78.8374C1311.69 78.8414 1313.55 77.5998 1314.34 75.6918C1315.14 73.7838 1314.7 71.5856 1313.24 70.123C1311.78 68.6604 1309.59 68.2216 1307.68 69.0115C1305.77 69.8013 1304.52 71.6641 1304.52 73.7305C1304.52 73.7937 1304.52 73.8572 1304.52 73.9204L1094.59 102.553C1093.98 100.04 1091.6 98.3709 1089.04 98.6663C1086.47 98.9617 1084.53 101.128 1084.51 103.712C1084.51 104.093 1084.56 104.472 1084.65 104.841L977.341 139.38C976.489 137.492 974.434 136.455 972.41 136.891C970.385 137.327 968.939 139.117 968.938 141.189C968.943 141.407 968.963 141.624 968.998 141.839L843.381 175.538C842.245 172.622 839.098 171.029 836.077 171.839C833.055 172.649 831.127 175.603 831.601 178.696L775.237 193.806C774.65 192.223 773.303 191.043 771.656 190.67C770.009 190.297 768.285 190.782 767.074 191.958L590.219 49.6454C591.957 47.123 591.889 43.7713 590.05 41.3214C588.21 38.8716 585.011 37.8722 582.104 38.8395C579.198 39.8067 577.235 42.5241 577.229 45.5879C577.232 45.8923 577.256 46.1961 577.299 46.4973L495.366 63.0471C494.684 61.2757 492.851 60.2284 490.979 60.5409C489.107 60.8533 487.713 62.4394 487.643 64.3363V64.6062L360.397 90.3203C359.356 86.5579 355.492 84.3245 351.713 85.3008C347.934 86.2772 345.634 90.1028 346.545 93.8989C347.456 97.6949 351.241 100.06 355.051 99.2148L390.732 219.391C390.028 219.642 389.357 219.977 388.734 220.39L314.804 117.853C315.904 116.866 316.28 115.301 315.747 113.922C315.214 112.543 313.884 111.638 312.406 111.647C311.796 111.65 311.196 111.812 310.667 112.117L237.517 10.7294C239.423 9.01882 239.952 6.24695 238.813 3.95405C237.673 1.66116 235.143 0.41083 232.63 0.897847C230.116 1.38486 228.237 3.48952 228.035 6.0423L9.2144 21.2329C8.66911 16.7337 5.02036 13.2472 0.501778 12.908C-4.0168 12.5687 -8.1451 15.4711 -9.35591 19.8385C-10.5667 24.2059 -8.5224 28.8203 -4.47439 30.857L-92.2525 230.244C-93.5273 229.75 -94.8822 229.496 -96.2492 229.494C-101.538 229.491 -106.08 233.255 -107.058 238.454C-108.037 243.653 -105.174 248.811 -100.246 250.731L-125.166 324.926L-124.166 325.235L-99.1868 251.051C-98.2127 251.334 -97.2037 251.479 -96.1893 251.481C-92.9765 251.481 -89.9244 250.075 -87.8361 247.633L145.723 429.521C143.802 432.532 143.994 436.429 146.202 439.237C148.409 442.044 152.15 443.15 155.528 441.993C158.907 440.836 161.186 437.67 161.21 434.098L383.258 415.2C383.887 419.38 387.628 422.37 391.843 422.061C396.057 421.752 399.323 418.247 399.335 414.021C399.334 413.599 399.297 413.177 399.225 412.761L896.088 302.419C896.113 302.505 896.141 302.59 896.171 302.674C896.195 302.74 896.221 302.805 896.248 302.869L829.492 337.558C827.519 334.32 823.4 333.126 820.002 334.809C816.605 336.491 815.055 340.491 816.433 344.024L576.909 457.064C575.462 454.813 572.716 453.772 570.141 454.498C567.565 455.224 565.767 457.547 565.708 460.222C565.649 462.897 567.344 465.297 569.884 466.135C572.425 466.974 575.215 466.055 576.76 463.87C603.977 477.861 716.325 535.885 736.798 546.649C736.639 547.064 736.554 547.504 736.549 547.948C736.653 549.978 738.328 551.57 740.361 551.57C742.393 551.57 744.068 549.978 744.172 547.948C744.165 547.387 744.035 546.835 743.793 546.329C759.5 535.596 824.297 486.186 877.583 445.331C878.711 446.515 880.346 447.072 881.961 446.823C883.576 446.574 884.968 445.55 885.686 444.082L945.058 465.579C944.997 465.848 944.967 466.123 944.968 466.398C944.975 466.789 945.039 467.176 945.158 467.548L924.884 477.082C924.206 476.151 923.006 475.762 921.911 476.12C920.817 476.477 920.077 477.499 920.078 478.651C920.078 478.87 920.108 479.089 920.168 479.3L802.005 534.906C801.241 533.747 799.782 533.265 798.478 533.739C797.174 534.213 796.366 535.521 796.525 536.9C796.684 538.279 797.768 539.368 799.146 539.533C800.523 539.699 801.834 538.896 802.315 537.594L1008.96 575.321L1009.21 576.021L1080.84 464.739L1060.11 513.249C1059.87 513.186 1059.61 513.153 1059.35 513.149C1057.97 513.155 1056.75 514.074 1056.36 515.408C1055.98 516.742 1056.51 518.17 1057.69 518.916L1033.34 575.881L1097.51 545.21C1098.45 546.719 1100.14 547.595 1101.91 547.493C1103.69 547.391 1105.27 546.327 1106.03 544.72L1189.57 575.281L1190.06 575.821L1217.41 494.011C1217.67 494.072 1217.93 494.102 1218.19 494.101C1218.97 494.1 1219.72 493.847 1220.34 493.382L1297.28 575.401L1515.23 530.629C1516.03 532.328 1517.73 533.415 1519.61 533.417C1520.69 533.433 1521.75 533.08 1522.6 532.418L1573.56 575.811L1595.3 471.875C1595.38 471.88 1595.47 471.88 1595.56 471.875C1596.19 471.869 1596.81 471.701 1597.36 471.385L1677.14 576.99L1676.7 574.991L1794.6 430.381L1730.41 408.084ZM1385.63 324.326C1385.16 324.588 1384.74 324.926 1384.39 325.325L1346.29 297.592C1346.5 297.179 1346.62 296.72 1346.62 296.253C1346.62 295.124 1345.98 294.093 1344.97 293.585L1355.96 258.816H1356.12C1356.19 258.822 1356.25 258.824 1356.32 258.824C1356.39 258.824 1356.45 258.822 1356.52 258.816L1385.63 324.326ZM1303.53 296.813C1303.6 296.954 1303.66 297.101 1303.69 297.253L1340.56 295.863C1340.76 294.361 1342.05 293.242 1343.56 293.255H1343.94L1354.93 258.477C1354.87 258.44 1354.81 258.4 1354.75 258.357C1354.72 258.335 1354.69 258.311 1354.66 258.287L1303.53 296.813ZM1303.95 298.252L1340.66 296.833C1340.96 298.214 1342.17 299.204 1343.58 299.211C1344.36 299.211 1345.1 298.91 1345.66 298.372L1383.84 326.095C1383.77 326.215 1383.7 326.335 1383.64 326.465L1303.95 298.252ZM1377.33 112.187L1377.28 112.177L1377.33 112.167L1377.33 112.187ZM1372.65 116.244C1374.83 115.84 1376.62 114.288 1377.33 112.187L1537.71 151.982C1537.57 152.706 1537.49 153.443 1537.49 154.181C1537.5 154.852 1537.57 155.521 1537.69 156.18L1384.14 191.708C1383.51 189.929 1381.84 188.732 1379.95 188.71L1372.65 116.244ZM1775.77 183.273L1719.36 271.529C1719.16 271.436 1718.94 271.359 1718.72 271.299L1724.78 229.095H1725.11C1728.07 229.098 1730.56 226.876 1730.9 223.932C1731.24 220.988 1729.31 218.26 1726.43 217.592L1740.42 120.032H1740.72C1741.57 120.031 1742.41 119.836 1743.17 119.462L1775.9 174.279C1774.46 175.314 1773.6 176.969 1773.57 178.741C1773.54 180.512 1774.35 182.193 1775.76 183.273H1775.77ZM1725.5 217.412L1739.49 119.852C1737.54 119.402 1735.98 117.964 1735.36 116.064L1559.6 152.462C1559.71 153.046 1559.76 153.638 1559.76 154.231C1559.76 155.456 1559.56 156.672 1559.15 157.829L1719.94 220.66C1720.92 218.667 1722.95 217.406 1725.17 217.412H1725.5ZM1380.84 197.604C1382.92 197.161 1384.41 195.324 1384.41 193.197C1384.4 193.026 1384.38 192.856 1384.35 192.687L1537.85 157.179C1538.27 158.669 1538.99 160.057 1539.96 161.257L1394.98 291.326C1393.73 290.131 1392.06 289.465 1390.33 289.467H1390.11L1380.84 197.604ZM1397.04 296.213V296.893L1542.54 322.587C1543.33 320.203 1545.38 318.455 1547.86 318.05V165.324C1545.07 165.219 1542.42 164.025 1540.49 161.996L1395.61 292.066C1396.53 293.251 1397.04 294.71 1397.04 296.213ZM1554.7 324.726C1554.7 324.546 1554.63 324.356 1554.63 324.166C1554.54 320.985 1552.09 318.371 1548.92 318.07V165.324C1551.13 165.189 1553.26 164.453 1555.08 163.195L1704.04 349.58C1703.68 349.968 1703.42 350.428 1703.27 350.93L1554.7 324.726ZM1704.87 348.791C1705.4 348.396 1706.03 348.151 1706.68 348.081L1716.68 278.994C1714.93 278.599 1713.69 277.055 1713.68 275.266C1713.68 273.014 1715.5 271.189 1717.75 271.189H1717.82L1723.88 228.985C1721.24 228.372 1719.37 226.02 1719.36 223.308C1719.37 222.744 1719.45 222.182 1719.6 221.639L1558.84 158.678C1558.18 160.144 1557.2 161.447 1555.99 162.496L1704.87 348.791ZM1720.57 278.124C1721.42 277.321 1721.87 276.186 1721.81 275.02C1721.75 273.854 1721.19 272.771 1720.26 272.058L1776.66 183.813C1777.43 184.216 1778.28 184.432 1779.15 184.442L1793.14 376.004L1720.57 278.124ZM1780.2 173.309L1793.11 125.089L1746.17 115.964C1745.82 117.172 1745.07 118.228 1744.05 118.963L1776.78 173.779C1777.53 173.408 1778.36 173.217 1779.2 173.219C1779.54 173.216 1779.87 173.246 1780.2 173.309ZM1735.16 115.035L1559.4 151.433C1559.01 149.852 1558.27 148.379 1557.24 147.115L1645.74 67.7243L1735.55 112.317C1735.29 112.972 1735.15 113.67 1735.15 114.375C1735.14 114.595 1735.14 114.816 1735.16 115.035ZM1556.57 146.376L1644.77 67.2445L1569.28 29.7677C1567.8 32.3292 1565.07 33.9069 1562.11 33.9051H1561.69L1550.26 143.158C1552.66 143.519 1554.87 144.648 1556.57 146.376ZM1554.77 29.3879C1555.97 31.7072 1558.19 33.3256 1560.76 33.7552L1549.31 143.058H1548.65C1546.23 143.059 1543.87 143.852 1541.94 145.316L1479.4 69.693C1480.81 68.3535 1481.61 66.4923 1481.61 64.5462C1481.61 63.7176 1481.46 62.8954 1481.18 62.1177L1554.77 29.3879ZM1472.81 71.4724C1470.82 71.0033 1469.12 69.6955 1468.16 67.8841L1377.31 108.229C1377.54 108.872 1377.65 109.547 1377.65 110.228C1377.65 110.563 1377.63 110.897 1377.57 111.227L1537.91 151.043C1538.5 149.085 1539.6 147.326 1541.12 145.956L1478.58 70.3326C1476.91 71.526 1474.81 71.9414 1472.81 71.4724ZM1520.44 523.873L1528.27 384.779C1528.46 384.772 1528.65 384.755 1528.84 384.729L1550.37 484.497C1548.63 485.033 1547.3 486.44 1546.87 488.205C1546.43 489.97 1546.95 491.836 1548.23 493.122L1522.58 524.862C1521.96 524.357 1521.22 524.017 1520.44 523.873ZM1716.37 467.128C1716.88 464.769 1718.95 463.071 1721.36 463.02L1725.33 411.432C1724.37 411.251 1723.51 410.751 1722.87 410.013L1655.85 456.624C1656.35 457.507 1656.62 458.506 1656.62 459.523C1656.62 459.592 1656.62 459.663 1656.62 459.732L1716.37 467.128ZM1722.26 409.224L1655.03 455.835C1654.01 454.559 1652.47 453.798 1650.84 453.756V430.271C1652.93 430.034 1654.55 428.317 1654.66 426.213C1654.66 426.095 1654.67 425.976 1654.67 425.858C1654.67 425.76 1654.66 425.661 1654.66 425.564L1721.96 408.674C1722.05 408.852 1722.15 409.026 1722.26 409.194V409.224ZM1649.84 453.756V430.271V430.241C1647.84 429.947 1646.37 428.199 1646.42 426.173C1646.5 425.78 1646.62 425.4 1646.8 425.044L1533.28 381.471C1533.27 381.483 1533.26 381.496 1533.25 381.509C1533.24 381.517 1533.23 381.526 1533.22 381.535L1533.2 381.556C1533.18 381.578 1533.16 381.601 1533.14 381.624C1533.14 381.635 1533.13 381.645 1533.12 381.656C1533.12 381.659 1533.12 381.663 1533.12 381.666L1533.12 381.674C1533.12 381.679 1533.12 381.685 1533.12 381.691L1645.98 455.955C1647 454.822 1648.35 454.051 1649.84 453.756ZM1523.31 525.552L1523.32 525.542C1524.86 527.334 1524.85 529.983 1523.3 531.768L1572.38 573.532L1552.72 494.581C1551.42 494.82 1550.08 494.525 1549 493.761L1523.32 525.542L1523.3 525.522L1523.31 525.552ZM1551.35 484.287C1551.54 484.257 1551.74 484.237 1551.93 484.227V484.197C1553.72 484.196 1555.38 485.113 1556.33 486.626L1592.04 469.396C1591.91 469.027 1591.84 468.638 1591.84 468.247C1591.84 467.256 1592.23 466.307 1592.94 465.609L1531.2 383.889C1530.77 384.164 1530.3 384.379 1529.81 384.529L1551.35 484.287ZM1595.55 464.529C1594.92 464.535 1594.29 464.704 1593.74 465.019L1531.99 383.28C1532.13 383.157 1532.26 383.026 1532.39 382.889C1532.49 382.784 1532.58 382.674 1532.67 382.56L1645.62 456.754C1645.17 457.606 1644.93 458.556 1644.92 459.523V459.932L1599.05 467.158C1598.59 465.602 1597.18 464.525 1595.55 464.499V464.529ZM1716.29 468.117L1656.46 460.762V460.732C1656.03 462.798 1654.52 464.472 1652.51 465.109L1676.33 573.322L1718.99 472.814C1717.33 471.896 1716.29 470.148 1716.29 468.247V468.117ZM1719.89 473.214C1721.49 473.761 1723.26 473.494 1724.63 472.5C1725.99 471.506 1726.79 469.908 1726.77 468.217C1726.77 467.532 1726.64 466.853 1726.38 466.218L1791.82 432.239L1678 571.883L1719.89 473.214ZM1725.94 465.349L1792.5 430.77L1730.1 409.024C1729.4 410.489 1727.94 411.444 1726.32 411.502L1722.38 463.05C1723.84 463.281 1725.13 464.116 1725.94 465.349ZM1721.76 406.995V407.115C1721.75 407.308 1721.75 407.501 1721.76 407.695L1654.53 424.564C1653.92 423.133 1652.55 422.171 1651 422.08C1649.45 421.989 1647.98 422.785 1647.2 424.134L1533.72 380.541C1533.72 380.482 1533.74 380.422 1533.76 380.362L1533.76 380.361C1533.77 380.321 1533.79 380.281 1533.8 380.241L1721.76 406.995ZM1515.01 526.841C1515.6 525.151 1517.14 523.973 1518.93 523.843L1518.84 405.626C1517.98 405.618 1517.15 405.311 1516.5 404.756L1396.15 499.698C1396.69 500.572 1396.97 501.579 1396.97 502.606C1396.98 502.792 1396.98 502.979 1396.97 503.166L1515.01 526.841ZM1297.51 574.252L1221.07 492.752L1256.79 513.809C1255.78 516.046 1256.24 518.67 1257.94 520.436C1259.65 522.201 1262.25 522.751 1264.52 521.824C1266.79 520.898 1268.27 518.681 1268.25 516.228L1386.03 503.785C1386.16 504.5 1386.44 505.18 1386.85 505.784L1297.51 574.252ZM1105.23 539.423L1133.87 517.287L1133.89 517.267C1133.75 516.964 1133.67 516.634 1133.66 516.297C1133.66 515.836 1133.81 515.385 1134.07 515.008L1087.25 464.15C1086.68 464.554 1086.04 464.852 1085.36 465.029L1101.24 537.834C1101.38 537.824 1101.52 537.824 1101.66 537.834C1103.02 537.838 1104.31 538.415 1105.23 539.423ZM881.25 436.867C879.761 436.877 878.354 437.551 877.413 438.705L848.957 419.237C849.393 418.488 849.624 417.636 849.626 416.769C849.619 416.521 849.595 416.274 849.556 416.029L946.796 390.305C946.866 390.435 946.946 390.565 947.026 390.685C929.111 404.506 907.429 421.196 884.917 438.476C883.973 437.451 882.643 436.868 881.25 436.867ZM738.867 544.45C739.34 544.245 739.85 544.14 740.365 544.14C740.577 544.146 740.788 544.173 740.995 544.22L776.406 438.286C775.831 438.013 775.322 437.618 774.917 437.126L706.203 481.929C706.764 483.197 706.399 484.683 705.314 485.546L738.867 544.45ZM577.869 460.022L774.018 435.397C774.101 435.708 774.215 436.009 774.358 436.297L705.644 481.099C704.921 480.293 703.823 479.931 702.762 480.149C701.701 480.367 700.835 481.132 700.488 482.159L577.849 461.032V460.362C577.849 460.24 577.857 460.182 577.864 460.139C577.865 460.129 577.866 460.12 577.867 460.111C577.868 460.105 577.869 460.098 577.87 460.092C577.87 460.085 577.87 460.078 577.871 460.071L577.871 460.067V460.057L577.87 460.047L577.87 460.038L577.869 460.022ZM820.52 348.191L780.553 430.71C781.344 431.212 781.954 431.954 782.291 432.829L839.554 417.688C839.5 417.402 839.47 417.111 839.464 416.819C839.475 414.679 840.831 412.778 842.85 412.071C844.869 411.364 847.115 412.005 848.457 413.671L903.492 377.213C902.833 376.107 902.488 374.843 902.493 373.556C902.494 372.928 902.578 372.303 902.743 371.697L829.912 344.434C828.303 348.011 824.152 349.672 820.52 348.191ZM634.452 319.339C634.132 317.7 632.695 316.518 631.025 316.521C630.721 316.523 630.418 316.567 630.126 316.651L615.238 281.982C617.419 280.803 618.969 278.723 619.475 276.296L895.239 300.74L634.452 319.339ZM242.423 111.977L233.631 12.1885C232.682 12.1719 231.752 11.9213 230.923 11.459L190.316 77.4682C191.53 78.3919 192.244 79.8299 192.244 81.3558C192.24 82.1481 192.041 82.9271 191.665 83.6244L238.247 114.465C239.276 113.14 240.768 112.251 242.423 111.977ZM770.571 200.452C771.921 200.447 773.211 199.895 774.148 198.923L835.008 247.893V248.023L835.278 248.103L880.791 284.75L866.422 283.271L719.772 212.485C719.993 211.928 720.108 211.335 720.112 210.736C720.11 210.376 720.067 210.017 719.982 209.667L765.945 197.334C766.709 199.218 768.538 200.451 770.571 200.452ZM842.782 181.234C841.668 182.914 839.801 183.941 837.786 183.983L836.007 246.924L905.3 220.02C905.173 219.588 905.106 219.141 905.101 218.691C905.101 218.003 905.244 217.323 905.52 216.692L842.782 181.234ZM1051.28 152.662C1051.35 154.026 1052.47 155.097 1053.84 155.1C1054.14 155.095 1054.44 155.038 1054.72 154.93L1096.2 223.518C1095.77 223.831 1095.38 224.197 1095.04 224.607L977.231 143.258C977.398 142.941 977.525 142.605 977.611 142.258L1051.28 152.662ZM1205.2 120.242C1203.12 119.945 1201.56 118.165 1201.54 116.054L1094.61 104.731V104.851L1197.52 140.309C1198.9 137.212 1201.83 135.089 1205.2 134.743V120.242ZM1287.32 209.297L1241.36 202.351C1241.36 202.305 1241.36 202.258 1241.36 202.211C1241.35 200.848 1240.71 199.564 1239.63 198.743L1274.31 148.434C1275.12 148.895 1276.03 149.136 1276.97 149.134C1277.3 149.135 1277.63 149.109 1277.97 149.054L1292.75 202.831C1289.96 203.929 1287.92 206.361 1287.32 209.297ZM1214.89 143.188H1271.57C1271.58 142.851 1271.63 142.517 1271.7 142.188L1209.59 118.013C1209.01 119.368 1207.68 120.245 1206.2 120.242V134.743C1210.87 134.823 1214.68 138.521 1214.89 143.188ZM1330.52 352.579L1515.12 400.969V401.029H1274.52C1274.44 399.962 1274.09 398.932 1273.52 398.03L1330.52 352.579ZM1385.94 502.636C1385.94 499.577 1388.41 497.095 1391.47 497.089H1391.51C1393.08 497.088 1394.58 497.757 1395.63 498.928L1515.87 404.037L1515.81 403.957L1268.01 514.279C1268.11 514.575 1268.19 514.879 1268.23 515.188L1385.94 502.746V502.636ZM1231.83 280.803C1232.22 281.136 1232.63 281.434 1233.07 281.692L1204.98 342.005C1203.69 341.591 1202.27 341.826 1201.17 342.638C1200.07 343.449 1199.43 344.738 1199.45 346.103C1199.46 346.802 1199.64 347.487 1199.98 348.101L1168.01 373.805V373.526L1167.74 373.815L1167.43 346.762L1231.83 280.803ZM1225.97 370.348L1263.19 397.471C1263.94 396.525 1264.95 395.811 1266.09 395.412L1238.01 282.482C1237.57 282.566 1237.12 282.609 1236.68 282.612H1235.96L1222.85 362.652C1224.43 363.062 1225.73 364.198 1226.35 365.715C1226.96 367.232 1226.82 368.95 1225.97 370.348ZM1234.96 282.442L1221.86 362.492H1221.51C1220.49 362.49 1219.49 362.793 1218.63 363.362L1206.98 348.841C1207.63 348.076 1207.99 347.105 1207.98 346.103C1207.98 344.577 1207.16 343.169 1205.84 342.405L1233.96 282.122C1234.29 282.252 1234.62 282.359 1234.96 282.442ZM1206.24 349.55C1205.51 350.102 1204.61 350.4 1203.7 350.4L1203.72 350.39C1203.22 350.391 1202.72 350.307 1202.25 350.14L1156.63 448L1156.84 448.11L1217.92 371.437C1216.9 370.471 1216.32 369.13 1216.3 367.724C1216.29 366.318 1216.85 364.967 1217.85 363.981L1206.24 349.55ZM1167.73 375.324L1200.55 348.951C1200.8 349.235 1201.09 349.486 1201.4 349.7L1155.78 447.57L1155.4 447.45L1167.73 375.324ZM1218.76 372.056L1157.67 448.739L1157.64 448.729C1158.02 449.084 1158.34 449.495 1158.59 449.948L1262.16 403.857C1261.46 402.028 1261.64 399.979 1262.65 398.3L1225.42 371.157C1223.73 373.059 1220.9 373.441 1218.76 372.056ZM1268.37 407.894C1271.57 407.685 1274.16 405.222 1274.54 402.038H1515.17C1515.17 402.038 1515.28 402.718 1515.38 402.987L1267.62 513.309C1266.71 511.552 1264.98 510.362 1263.01 510.131L1268.37 407.894ZM1268.15 395.162C1269.98 395.162 1271.72 395.945 1272.93 397.311L1329.73 352.129L1242.2 280.323C1241.35 281.249 1240.27 281.937 1239.07 282.322L1267.15 395.252C1267.48 395.199 1267.82 395.169 1268.15 395.162ZM1231.16 280.103L1167.44 345.383L1166.39 251.701L1229.69 273.257C1229.5 273.93 1229.4 274.626 1229.4 275.326C1229.39 277.072 1230 278.762 1231.13 280.093L1231.16 280.103ZM1166.45 346.392L1165.39 251.361L1105.48 230.964C1104.78 232.57 1103.42 233.802 1101.76 234.351L1134.44 369.848C1134.95 369.751 1135.46 369.701 1135.97 369.698C1138.05 369.701 1140.06 370.457 1141.63 371.827L1166.45 346.392ZM1057.94 359.454L1059.31 298.362C1060.56 298.296 1061.75 297.857 1062.74 297.103L1129.84 372.226C1128.72 373.345 1127.93 374.754 1127.57 376.294L1061.96 364.391V364.051C1061.96 361.728 1060.24 359.764 1057.94 359.454ZM1019.86 322.149C1021.12 321.814 1022.47 322.132 1023.45 322.997L1053.92 295.874C1053.27 295.019 1052.85 294.01 1052.7 292.945L991.13 296.483C990.996 298.42 989.447 299.958 987.509 300.077C985.572 300.196 983.846 298.859 983.476 296.953L907.099 300.95C907.109 301.11 907.109 301.27 907.099 301.43L1017.16 324.666C1017.58 323.428 1018.6 322.484 1019.86 322.149ZM390.102 318.779L394.049 237.04C397.809 236.857 401.064 234.366 402.222 230.784L602.938 273.757C602.906 274.046 602.889 274.336 602.888 274.627C602.892 275.249 602.962 275.868 603.098 276.475L393.929 321.847C393.314 320.199 391.845 319.021 390.102 318.779ZM191.455 271.928L155.145 426.023C156.623 426.434 157.958 427.247 159.002 428.372L386.815 233.972C385.969 233.009 385.336 231.878 384.957 230.654L199.449 264.373C199.464 264.619 199.464 264.866 199.449 265.112C199.451 266.946 198.725 268.705 197.43 270.002C196.135 271.299 194.377 272.028 192.544 272.028C192.179 272.025 191.815 271.992 191.455 271.928ZM243.363 125.209L246.45 183.313C245.172 183.555 244.12 184.462 243.692 185.691L146.262 158.258C146.335 157.91 146.372 157.555 146.372 157.199C146.37 156.685 146.296 156.174 146.152 155.68L237.467 121.361C238.54 123.659 240.828 125.144 243.363 125.189V125.209ZM243.492 186.641L145.982 159.188V159.198C145.517 160.381 144.655 161.367 143.544 161.986L190.016 258.696C191.856 257.962 193.922 258.057 195.687 258.956C197.452 259.856 198.742 261.473 199.229 263.394L384.677 229.684C384.564 229.128 384.508 228.563 384.507 227.995C384.51 227.462 384.561 226.931 384.657 226.406L250.377 188.57C249.601 190.066 247.902 190.835 246.266 190.432C244.63 190.028 243.484 188.556 243.492 186.871C243.488 186.794 243.488 186.717 243.492 186.641ZM719.313 213.364L863.495 282.961L782.331 274.627L718.913 213.914C719.062 213.746 719.195 213.565 719.313 213.374V213.364ZM866.143 284.491L782.031 276.096L622.982 276.066L895.838 300.051C895.905 299.646 895.999 299.245 896.118 298.852L866.143 284.491ZM1093.67 228.675C1093.69 229.56 1093.9 230.43 1094.3 231.223L990.381 293.825C989.098 292.145 986.699 291.819 985.015 293.095L913.993 221.839C914.563 221.153 914.932 220.323 915.062 219.441L1093.67 228.675ZM1130.6 371.552L1130.64 371.587L1130.59 371.567L1130.6 371.552ZM1133.53 370.088C1132.47 370.383 1131.48 370.88 1130.6 371.552L1063.54 296.453C1064.78 295.163 1065.4 293.406 1065.26 291.625C1065.12 289.845 1064.22 288.209 1062.8 287.129L1096.96 233.952C1097.85 234.426 1098.84 234.674 1099.85 234.671C1100.19 234.673 1100.52 234.646 1100.85 234.591L1133.53 370.088ZM991.16 295.494C991.106 295.217 991.026 294.946 990.92 294.684L1094.84 232.093C1095.19 232.582 1095.61 233.016 1096.09 233.382L1061.93 286.559C1060.01 285.531 1057.69 285.574 1055.81 286.675C1053.92 287.776 1052.75 289.775 1052.7 291.956L991.16 295.494ZM913.304 222.559C912.42 223.287 911.312 223.689 910.167 223.698H910.126C908.251 223.69 906.538 222.633 905.69 220.96L837.016 247.633L983.856 294.544C983.985 294.281 984.143 294.033 984.326 293.805L913.304 222.559ZM907.119 299.951C906.812 297.805 905.31 296.021 903.247 295.354C901.184 294.686 898.922 295.253 897.417 296.813L884.088 286.09L981.298 296.083L907.119 299.951ZM896.638 297.842L896.787 297.592L882.229 285.91L869.06 284.55L896.638 297.842ZM1099.85 222.349L1090.75 108.719C1092.35 108.374 1093.69 107.286 1094.36 105.791L1197.36 141.249C1197.13 142.042 1197.02 142.862 1197.01 143.687C1197.01 145.552 1197.59 147.37 1198.68 148.884L1104.32 224.288C1103.16 223.051 1101.54 222.35 1099.85 222.349ZM1089.72 108.859H1089.66C1088.78 108.859 1087.92 108.628 1087.16 108.189L1055.74 150.833C1056.17 151.302 1056.42 151.92 1056.42 152.562C1056.41 153.286 1056.1 153.975 1055.57 154.461L1097.06 223.038C1097.61 222.764 1098.2 222.576 1098.81 222.479L1089.72 108.859ZM970.997 144.927C972.824 146.111 975.245 145.761 976.662 144.107L1094.48 225.467C1094.08 226.158 1093.82 226.923 1093.72 227.716L915.092 218.491C915.039 217.251 914.526 216.076 913.654 215.193L970.997 144.927ZM882.619 284.97L982.647 295.244L837.916 248.992L882.619 284.97ZM715.386 215.473C716.346 215.554 717.308 215.33 718.134 214.833L780.832 275.106H619.604C619.703 272.535 618.594 270.065 616.607 268.43L664.298 191.298C664.892 191.56 665.537 191.687 666.186 191.668C667.716 191.66 669.132 190.862 669.933 189.559L710.9 209.327C710.743 209.784 710.662 210.263 710.66 210.746C710.66 213.357 712.776 215.473 715.386 215.473ZM615.778 267.591L663.429 190.638L663.419 190.598C662.336 189.752 661.713 188.447 661.734 187.073C661.756 185.699 662.42 184.415 663.528 183.603L587.511 51.984C586.943 52.2577 586.341 52.4559 585.722 52.5736L611.161 266.252H611.251C612.858 266.253 614.429 266.718 615.778 267.591ZM584.403 52.7235H584.743L610.162 266.362C609.109 266.503 608.092 266.842 607.165 267.361L553.309 185.412C556.081 183.543 557.573 180.28 557.172 176.961C556.772 173.642 554.547 170.827 551.41 169.671L583.014 52.5936C583.47 52.6717 583.931 52.7085 584.393 52.7035L584.403 52.7235ZM552.459 185.911C551.184 186.571 549.769 186.914 548.333 186.911C545.968 186.911 543.701 185.97 542.031 184.296C540.36 182.621 539.425 180.351 539.43 177.986C539.428 177.154 539.546 176.326 539.78 175.528L359.817 95.5771C359.732 95.7416 359.639 95.9017 359.537 96.0568C390.438 118.323 538.8 223.041 592.518 260.956L592.617 261.025L592.689 261.076C597.484 264.461 601.518 267.308 604.637 269.51C605.121 268.882 605.693 268.326 606.335 267.861L552.459 185.911ZM358.948 96.8663C392.97 121.391 565.449 243.106 604.077 270.349C604.007 270.459 603.937 270.569 603.877 270.679L445.087 191.878C445.305 191.331 445.417 190.747 445.417 190.159C445.431 188.311 444.403 186.613 442.76 185.768C441.117 184.923 439.138 185.075 437.643 186.161L358.608 97.2161C358.729 97.1066 358.842 96.9898 358.948 96.8663ZM441.041 195.036C439.577 195.202 438.115 194.699 437.064 193.667L401.253 223.118C402.176 224.566 402.665 226.248 402.662 227.965C402.663 228.576 402.603 229.186 402.482 229.784L603.108 272.788C603.205 272.387 603.329 271.993 603.478 271.608L444.608 192.807C443.816 194.05 442.505 194.869 441.041 195.036ZM384.897 225.437L250.707 187.65C250.759 187.401 250.786 187.146 250.787 186.891C250.783 185.001 249.332 183.429 247.449 183.273L244.352 125.149C245.995 124.935 247.498 124.115 248.568 122.85L385.886 223.218C385.462 223.908 385.129 224.651 384.897 225.427V225.437ZM191.115 84.4539C190.193 85.5956 188.806 86.2602 187.339 86.2628C186.601 86.263 185.873 86.0955 185.21 85.7731L144.034 152.732C144.774 153.242 145.375 153.929 145.783 154.731L237.118 120.412C236.942 119.804 236.851 119.175 236.848 118.543C236.847 117.405 237.139 116.286 237.697 115.295L191.115 84.4539ZM142.625 162.386L189.117 259.126C186.703 260.477 185.328 263.14 185.624 265.891C185.92 268.643 187.829 270.952 190.476 271.758L154.176 425.803C153.737 425.719 153.293 425.672 152.847 425.663L141.416 162.656C141.828 162.613 142.234 162.523 142.625 162.386ZM387.485 234.681L159.611 429.141H159.561C159.821 429.491 160.052 429.862 160.251 430.251L384.827 324.916C384.678 324.467 384.601 323.999 384.597 323.526C384.602 320.99 386.573 318.893 389.103 318.729L393.05 237.04C390.978 236.919 389.012 236.086 387.485 234.681ZM394.249 323.536C394.243 323.295 394.217 323.054 394.169 322.817L603.388 277.425C603.608 278.051 603.903 278.649 604.267 279.204L397.776 409.333C396.325 407.321 394.03 406.087 391.551 405.986L389.983 328.303C392.409 328.029 394.244 325.979 394.249 323.536ZM604.866 280.013L398.316 410.183C398.352 410.251 398.386 410.322 398.421 410.395C398.456 410.472 398.492 410.552 398.529 410.636L398.545 410.673L627.628 320.918C627.552 320.631 627.511 320.336 627.508 320.039C627.5 318.818 628.129 317.682 629.167 317.04L614.289 282.392C610.963 283.702 607.172 282.745 604.866 280.013ZM906.899 302.409L1016.97 325.645V325.965C1016.97 326.331 1017.03 326.695 1017.14 327.044L916.141 370.457C914.947 367.984 912.443 366.412 909.697 366.41H909.377L902.643 306.287C904.657 305.862 906.283 304.378 906.889 302.409H906.899ZM946.363 389.359L946.377 389.356L946.367 389.376L946.363 389.359ZM946.277 388.426C946.271 388.74 946.3 389.053 946.363 389.359L849.276 415.06C849.198 414.855 849.108 414.655 849.007 414.46L904.081 378.043C905.613 379.95 908.014 380.942 910.445 380.67C912.875 380.399 914.998 378.902 916.072 376.704L946.277 388.007C946.267 388.146 946.267 388.287 946.277 388.426ZM950.114 384.549C948.525 384.549 947.1 385.526 946.527 387.007L916.471 375.754C916.7 375.04 916.818 374.295 916.821 373.546C916.818 372.802 916.7 372.064 916.471 371.357L1017.49 327.944C1017.51 327.981 1017.53 328.018 1017.55 328.054C1017.58 328.096 1017.6 328.136 1017.63 328.174L952.901 385.738C952.167 384.984 951.157 384.561 950.104 384.569L950.114 384.549ZM1024.36 327.785C1023.68 329.076 1022.34 329.886 1020.89 329.893L1020.88 329.913C1020.42 329.927 1019.97 329.863 1019.54 329.723L951.213 462.781C951.482 462.935 951.734 463.119 951.962 463.33L1053.68 366.86C1053.04 366.058 1052.69 365.066 1052.68 364.041C1052.69 361.63 1054.54 359.626 1056.95 359.424L1058.32 298.342C1056.92 298.198 1055.62 297.593 1054.61 296.623L1024.13 323.726C1024.95 324.933 1025.04 326.494 1024.36 327.785ZM1054.35 367.569C1055.54 368.605 1057.17 368.959 1058.68 368.509C1060.19 368.059 1061.36 366.867 1061.79 365.351L1127.4 377.253C1127.36 377.585 1127.33 377.919 1127.33 378.253C1127.33 379.355 1127.54 380.447 1127.95 381.471L952.712 463.93L1054.35 367.569ZM1143.85 381.788C1142.47 384.914 1139.37 386.927 1135.95 386.917L1135.94 386.937C1134.46 386.93 1133 386.538 1131.71 385.798L1087.27 454.845C1087.49 455.001 1087.7 455.172 1087.89 455.355L1166.75 374.825L1166.45 347.781L1142.32 372.496C1144.63 375.015 1145.23 378.661 1143.85 381.788ZM1088.55 456.105L1166.49 376.514L1154.39 447.26H1154C1151.08 447.26 1148.72 449.621 1148.71 452.537L1089.56 458.423C1089.4 457.59 1089.05 456.804 1088.54 456.125L1088.55 456.105ZM1262.61 404.756L1159.02 450.848C1159.47 452.127 1159.4 453.535 1158.8 454.755L1215.57 488.225C1216.55 487.085 1218.13 486.674 1219.54 487.195C1220.95 487.717 1221.89 489.06 1221.89 490.563C1221.89 490.993 1221.81 491.419 1221.66 491.823L1257.37 512.88C1258.41 511.283 1260.15 510.277 1262.06 510.171L1267.39 407.934C1265.39 407.69 1263.61 406.512 1262.61 404.756ZM1513.87 399.679L1330.68 351.579L1242.75 279.434C1242.93 279.163 1243.1 278.883 1243.24 278.594L1513.87 399.679ZM1230.01 272.298C1230.89 270.369 1232.55 268.911 1234.58 268.301L1207.49 152.512C1206.98 152.604 1206.46 152.651 1205.94 152.652C1203.39 152.647 1200.96 151.557 1199.26 149.654L1104.91 225.057C1105.9 226.5 1106.21 228.303 1105.76 229.994L1230.01 272.298ZM1210.6 151.373C1213.15 149.838 1214.77 147.145 1214.94 144.177H1271.62C1271.75 145.613 1272.44 146.939 1273.55 147.865L1238.85 198.214C1238.28 197.957 1237.67 197.824 1237.05 197.824C1236.42 197.828 1235.81 197.964 1235.24 198.224L1210.6 151.373ZM1241.24 203.331C1240.84 204.804 1239.7 205.963 1238.24 206.389L1246.39 241.677C1246.49 241.672 1246.58 241.672 1246.68 241.677C1247.64 241.68 1248.56 242.078 1249.22 242.776L1288.38 215.423C1287.61 214.085 1287.2 212.569 1287.2 211.026V210.276L1241.24 203.331ZM1249.95 246.324C1250.09 245.947 1250.17 245.548 1250.17 245.145C1250.16 244.595 1250.03 244.054 1249.78 243.566L1288.92 216.413C1290.57 218.699 1293.19 220.078 1296.01 220.14L1301.71 271.109C1300.69 271.315 1299.8 271.893 1299.19 272.728L1249.95 246.324ZM1296.97 219.8L1302.65 270.869H1302.66C1303.84 270.872 1304.95 271.361 1305.75 272.218L1358.24 233.732C1358.08 233.392 1357.99 233.02 1357.99 232.643C1357.98 232.536 1357.98 232.429 1357.99 232.323L1304.11 214.424C1302.88 217.378 1300.15 219.435 1296.97 219.8ZM1359.35 230.364C1358.93 230.595 1358.58 230.942 1358.35 231.363L1304.48 213.474C1304.71 212.678 1304.83 211.854 1304.83 211.026C1304.83 209.386 1304.37 207.779 1303.5 206.389L1341.23 181.644C1342.04 182.702 1343.3 183.323 1344.63 183.323C1344.9 183.322 1345.16 183.295 1345.42 183.243L1359.35 230.364ZM1340.66 180.804C1340.15 179.702 1340.13 178.436 1340.6 177.317L1281.59 146.686C1280.95 147.667 1280.02 148.42 1278.92 148.834L1293.68 202.521C1294.43 202.316 1295.2 202.212 1295.97 202.211C1298.68 202.21 1301.23 203.451 1302.9 205.579L1340.66 180.804ZM1278.81 138.571C1278.23 138.353 1277.6 138.241 1276.98 138.241C1274.92 138.24 1273.04 139.4 1272.11 141.239L1210.07 117.064C1210.28 116.34 1210.28 115.569 1210.07 114.845L1305.15 76.0891C1305.59 76.9177 1306.25 77.6095 1307.05 78.0879L1278.81 138.571ZM1304.75 75.1796C1304.72 75.0916 1304.69 75.0014 1304.67 74.9098L1094.76 103.582V103.742L1201.76 115.065C1202.14 113.327 1203.56 112.01 1205.33 111.76C1207.09 111.511 1208.82 112.382 1209.67 113.946L1304.75 75.1796ZM1084.98 105.791C1085.29 106.48 1085.75 107.091 1086.33 107.58L1054.93 150.193C1054.27 149.877 1053.51 149.858 1052.84 150.141C1052.16 150.424 1051.64 150.981 1051.41 151.672L977.741 141.309C977.746 141.269 977.746 141.229 977.741 141.189C977.736 140.9 977.706 140.613 977.651 140.329L1084.98 105.791ZM970.217 144.297C969.814 143.875 969.495 143.38 969.278 142.838L843.671 176.487C843.963 177.785 843.826 179.142 843.281 180.355L906.05 215.853C907.605 213.653 910.624 213.083 912.874 214.564L970.217 144.297ZM831.811 179.675C832.525 181.931 834.465 183.581 836.807 183.923L835.068 246.654L774.777 198.144C775.286 197.35 775.56 196.428 775.567 195.485C775.56 195.25 775.534 195.016 775.487 194.786L831.811 179.675ZM765.605 195.485C765.605 194.505 765.893 193.545 766.434 192.727L589.609 50.4249C589.242 50.8252 588.83 51.1808 588.38 51.4843L664.378 183.093C664.935 182.847 665.537 182.721 666.146 182.723C667.592 182.703 668.954 183.396 669.789 184.577C670.624 185.757 670.824 187.273 670.323 188.63L711.289 208.397C712.152 206.861 713.803 205.936 715.564 206.004C717.325 206.071 718.9 207.119 719.642 208.717L765.695 196.375C765.635 196.082 765.605 195.784 765.605 195.485ZM577.499 47.4767C578.122 49.7292 579.809 51.5329 582.015 52.3038L550.461 169.362C548.489 168.858 546.402 169.064 544.566 169.941L493.787 67.6843C494.928 66.9523 495.62 65.6919 495.626 64.3363V64.0265L577.499 47.4767ZM491.649 68.3139C489.943 68.2998 488.434 67.2039 487.892 65.5856L360.627 91.2797C360.67 91.5843 360.693 91.8915 360.697 92.1991C360.694 93.0348 360.546 93.8635 360.257 94.6476L540.11 174.598C540.828 172.858 542.08 171.392 543.687 170.411L492.878 68.104C492.481 68.2352 492.067 68.306 491.649 68.3139ZM356 98.925C356.663 98.6851 357.285 98.3483 357.849 97.9256L436.894 186.871C435.371 188.52 435.172 190.997 436.414 192.867L400.644 222.329C398.498 219.639 395.015 218.396 391.651 219.121L356 98.925ZM386.445 222.399C386.871 221.862 387.353 221.373 387.884 220.94L313.985 118.453C313.5 118.703 312.962 118.833 312.416 118.833C310.757 118.834 309.315 117.691 308.939 116.074L250.157 118.743C250.125 119.915 249.78 121.057 249.158 122.051L386.445 222.399ZM309.848 112.746C309.238 113.372 308.882 114.202 308.849 115.075L250.107 117.743C249.707 114.399 246.87 111.883 243.503 111.887H243.423L234.63 12.1086C235.371 11.9893 236.08 11.7244 236.718 11.329L309.848 112.746ZM230.094 10.8993C228.923 9.93778 228.182 8.5499 228.035 7.04168L9.26436 22.2323V22.3922C9.26701 24.6636 8.45113 26.8598 6.96625 28.5784L137.15 153.142C138.771 151.638 141.141 151.267 143.145 152.202L184.341 85.2434C182.655 83.9698 181.976 81.7578 182.657 79.7571C183.338 77.7565 185.226 76.4186 187.339 76.4389C188.073 76.443 188.798 76.6138 189.457 76.9386L230.094 10.8993ZM-3.55514 31.2667C-0.156944 32.5513 3.67664 31.7744 6.30679 29.268L136.5 153.831C135.775 154.781 135.382 155.944 135.381 157.139C135.385 157.573 135.435 158.005 135.531 158.428L-86.0276 236.38C-87.0385 233.885 -88.93 231.847 -91.3432 230.654L-3.55514 31.2667ZM-85.2582 240.488C-85.2463 242.763 -85.9449 244.985 -87.2566 246.844L146.332 428.732C147.713 427.055 149.69 425.981 151.848 425.733L140.387 162.616C138.386 162.449 136.635 161.203 135.821 159.368L-85.7278 237.32C-85.4189 238.347 -85.2607 239.414 -85.2582 240.488ZM161.12 433.139C161.048 432.456 160.89 431.784 160.65 431.14L385.216 325.845C385.982 327.244 387.395 328.17 388.983 328.313L390.552 406.006C386.359 406.349 383.13 409.852 383.128 414.061V414.25L161.12 433.139ZM628.028 321.797L398.925 411.582H398.915C398.934 411.663 398.957 411.743 398.985 411.822L894.739 301.74L634.452 320.338C634.312 321.83 633.229 323.063 631.768 323.395C630.307 323.727 628.798 323.082 628.028 321.797ZM896.688 303.799C897.729 305.435 899.534 306.426 901.474 306.427H901.603L908.348 366.55C905.997 366.984 904.02 368.568 903.082 370.767L830.242 343.504C830.447 342.827 830.552 342.123 830.552 341.415C830.551 340.408 830.344 339.411 829.942 338.487L896.688 303.799ZM819.601 347.761C818.442 347.101 817.485 346.137 816.833 344.973L577.389 457.944C577.537 458.296 577.654 458.66 577.739 459.033L773.868 434.358C773.868 431.963 775.81 430.021 778.205 430.021C778.692 430.03 779.174 430.118 779.633 430.281L819.601 347.761ZM577.269 463.01C577.431 462.692 577.558 462.357 577.649 462.011L700.308 483.148C700.308 483.964 700.633 484.747 701.21 485.324C701.787 485.902 702.57 486.226 703.386 486.226C703.751 486.221 704.113 486.154 704.455 486.026L738.017 544.99C737.73 545.214 737.474 545.476 737.258 545.769C716.595 534.896 604.896 477.262 577.269 463.01ZM741.944 544.54C742.468 544.782 742.93 545.141 743.293 545.589C757.671 535.696 818.861 489.104 876.964 444.582C876.464 443.789 876.197 442.871 876.194 441.933C876.197 441.112 876.406 440.304 876.804 439.585L848.337 420.107C847.199 421.493 845.405 422.162 843.637 421.86C841.869 421.559 840.399 420.333 839.784 418.648L782.501 433.798C782.536 434 782.556 434.204 782.561 434.408C782.564 435.56 782.108 436.666 781.294 437.481C780.481 438.297 779.376 438.755 778.224 438.755C777.925 438.752 777.628 438.719 777.335 438.655L741.944 544.54ZM886.036 443.183C886.153 442.773 886.213 442.349 886.216 441.923C886.215 441.001 885.955 440.097 885.467 439.315C910.024 420.466 931.315 404.06 942.951 395.095L943.074 395L943.953 394.323L947.676 391.455C948.358 392.021 949.217 392.332 950.104 392.334C952.239 392.334 953.971 390.602 953.971 388.466C953.966 387.817 953.794 387.18 953.471 386.618L1018.29 328.973L1018.64 329.263L950.254 462.451C948.3 461.83 946.194 462.789 945.378 464.669L886.036 443.183ZM950.215 470.451C948.398 470.936 946.483 470.138 945.547 468.507L925.304 478.031C925.36 478.247 925.39 478.468 925.394 478.691C925.391 479.012 925.33 479.33 925.214 479.63L981.988 508.342C982.973 506.741 984.636 505.677 986.503 505.455C988.37 505.233 990.236 505.877 991.57 507.203L1129.21 383.729C1128.89 383.336 1128.6 382.915 1128.36 382.47L953.021 464.989C953.193 465.453 953.285 465.943 953.291 466.438C953.294 468.319 952.031 469.965 950.215 470.451ZM922.736 481.349C923.497 481.364 924.226 481.046 924.734 480.48L981.578 509.272C981.276 510.015 981.12 510.809 981.118 511.61V512L802.674 535.696L920.578 480.21C921.081 480.899 921.883 481.308 922.736 481.309V481.349ZM981.228 512.96L802.754 536.695L1008.63 574.282L988.892 517.497C987.272 517.953 985.537 517.726 984.089 516.869C982.642 516.011 981.608 514.599 981.228 512.96ZM989.831 517.147C991.997 516.136 993.381 513.961 993.378 511.57C993.383 510.277 992.974 509.016 992.209 507.973L1129.87 384.439C1130.18 384.743 1130.51 385.023 1130.87 385.278L1086.39 454.356C1083.8 453.124 1080.69 454.011 1079.14 456.427C1077.58 458.843 1078.06 462.037 1080.26 463.89L1009.52 573.822L989.831 517.147ZM1083.92 465.249C1083.24 465.244 1082.56 465.116 1081.93 464.869L1061.05 513.699C1061.95 514.274 1062.5 515.269 1062.5 516.337C1062.5 516.754 1062.42 517.165 1062.25 517.547L1097.86 539.693C1098.48 538.918 1099.31 538.349 1100.26 538.064L1084.37 465.249H1083.92ZM1035.33 573.902L1058.64 519.346C1059.78 519.647 1060.99 519.256 1061.73 518.346L1097.34 540.493C1096.99 541.165 1096.81 541.912 1096.8 542.671C1096.81 543.248 1096.91 543.819 1097.11 544.36L1035.33 573.902ZM1134.5 518.056L1105.85 540.203C1106.31 540.952 1106.55 541.812 1106.56 542.691C1106.55 543.082 1106.5 543.471 1106.41 543.85L1188.13 573.752L1137.06 518.266C1136.72 518.471 1136.34 518.578 1135.94 518.576C1135.42 518.576 1134.91 518.392 1134.5 518.056ZM1189.69 573.962L1137.8 517.607C1138.06 517.233 1138.19 516.79 1138.19 516.338C1138.19 515.094 1137.18 514.084 1135.94 514.079C1135.55 514.082 1135.17 514.189 1134.83 514.389L1088.08 463.53C1089.13 462.463 1089.72 461.028 1089.72 459.533V459.443L1148.86 453.546C1149.26 455.61 1150.84 457.241 1152.89 457.694C1154.94 458.146 1157.07 457.332 1158.29 455.625L1214.98 489.064C1214.16 490.784 1214.85 492.838 1216.54 493.721L1189.69 573.962ZM1387.54 506.444L1299.51 573.962L1514.91 529.709C1514.83 529.345 1514.78 528.973 1514.78 528.6C1514.78 528.331 1514.81 528.064 1514.86 527.8L1396.84 504.135C1396.3 506.039 1394.78 507.506 1392.85 507.983C1390.93 508.46 1388.91 507.873 1387.54 506.444ZM1573.2 572.643L1553.7 494.301C1555.03 493.839 1556.11 492.854 1556.69 491.574C1557.28 490.294 1557.31 488.831 1556.79 487.525L1592.47 470.276C1592.92 470.942 1593.57 471.444 1594.33 471.705L1573.2 572.643ZM1599.28 468.177C1599.28 469.168 1598.88 470.116 1598.18 470.816L1675.2 572.763L1651.54 465.249C1651.29 465.289 1651.03 465.309 1650.78 465.309C1648.1 465.308 1645.77 463.481 1645.13 460.882L1599.28 468.097V468.177Z" fill="#E76ECE"/>
</svg>
